<?xml version="1.0" encoding="UTF-8"?>
<svg version="1.1" xmlns="http://www.w3.org/2000/svg" width="413" height="122">
<path d="M0 0 C3.6145409 3.01455638 5.59971112 6.15564816 7.625 10.375 C9.73407158 8.45180188 9.73407158 8.45180188 11 5.875 C12.70591684 3.25051256 13.75293328 2.46440462 16.625 1.375 C16.625 0.715 16.625 0.055 16.625 -0.625 C20.78157868 -2.62426693 24.16277401 -2.86606633 28.75 -2.8125 C29.96945313 -2.80605469 31.18890625 -2.79960938 32.4453125 -2.79296875 C35.625 -2.625 35.625 -2.625 38.625 -1.625 C38.625 -0.965 38.625 -0.305 38.625 0.375 C39.615 0.375 40.605 0.375 41.625 0.375 C45.83930853 4.03369074 47.99896394 8.31968426 48.6875 13.8125 C48.89955111 19.93653612 48.17020691 25.45365413 44.0390625 30.1953125 C38.37721185 35.3132299 33.63986669 36.71383169 26.07421875 36.578125 C23.03877921 36.32638201 20.42647302 35.55456759 17.625 34.375 C17.625 33.715 17.625 33.055 17.625 32.375 C17.026875 32.106875 16.42875 31.83875 15.8125 31.5625 C12.1662013 29.58308071 10.90801961 28.13468421 9.4375 24.1875 C9.169375 23.259375 8.90125 22.33125 8.625 21.375 C7.965 21.375 7.305 21.375 6.625 21.375 C6.295 23.355 5.965 25.335 5.625 27.375 C4.965 27.375 4.305 27.375 3.625 27.375 C3.604375 27.9525 3.58375 28.53 3.5625 29.125 C2.08642219 32.66758673 -1.00077787 33.80576569 -4.375 35.375 C-10.57006258 37.44002086 -15.78314802 36.97372527 -21.6875 34.1875 C-26.64659486 31.45038718 -29.30944345 28.77250223 -31.625 23.5625 C-33.2734689 16.55650716 -32.73724563 11.73925065 -29.375 5.375 C-27.375 2.4375 -27.375 2.4375 -25.375 0.375 C-24.385 0.375 -23.395 0.375 -22.375 0.375 C-22.045 -0.285 -21.715 -0.945 -21.375 -1.625 C-14.08088442 -4.57368502 -6.60597162 -4.60080705 0 0 Z M-17.875 10.3125 C-19.99014843 14.63092804 -19.50235184 16.71527905 -18.375 21.375 C-17.35078739 23.48438785 -17.35078739 23.48438785 -15.375 24.375 C-11.27356206 24.90838432 -11.27356206 24.90838432 -7.70703125 23.1328125 C-6.01785316 20.90369185 -6.0024644 19.64587401 -6.0625 16.875 C-6.06636719 16.1015625 -6.07023437 15.328125 -6.07421875 14.53125 C-6.25674539 12.08175054 -6.25674539 12.08175054 -8.375 9.375 C-13.44552976 7.87242486 -13.44552976 7.87242486 -17.875 10.3125 Z M23.625 9.375 C22.03012424 13.0683965 21.09669391 16.35987374 21.625 20.375 C22.47717329 22.81702118 22.47717329 22.81702118 24.625 24.375 C27.37956101 24.71728273 29.83090521 24.55821933 32.625 24.375 C34.87596631 20.13279427 35.79247016 18.39656796 35 13.5625 C33.86837869 10.14415695 33.86837869 10.14415695 30.625 8.375 C26.73040926 8.16418149 26.73040926 8.16418149 23.625 9.375 Z M7.625 13.375 C7.625 15.685 7.625 17.995 7.625 20.375 C7.955 20.375 8.285 20.375 8.625 20.375 C8.625 18.065 8.625 15.755 8.625 13.375 C8.295 13.375 7.965 13.375 7.625 13.375 Z " fill="#040404" transform="translate(219.375,76.625)"/>
<path d="M0 0 C0.25 7.625 0.25 7.625 -2 11 C-0.35 10.67 1.3 10.34 3 10 C3.268125 8.88625 3.53625 7.7725 3.8125 6.625 C5 3 5 3 8 1 C10.6640625 0.98828125 10.6640625 0.98828125 13.625 1.3125 C14.60726562 1.41175781 15.58953125 1.51101563 16.6015625 1.61328125 C19 2 19 2 20 3 C20.04092937 5.33297433 20.04241723 7.66705225 20 10 C20.92941406 9.97679687 21.85882813 9.95359375 22.81640625 9.9296875 C36.02121641 9.73691655 36.02121641 9.73691655 41 12 C43.85197126 15.75158635 43.22156911 20.27067884 43.125 24.75 C43.11597656 25.54277344 43.10695313 26.33554687 43.09765625 27.15234375 C43.07417012 29.10169281 43.03830137 31.05088575 43 33 C38.51516502 35.54589302 34.54934706 35.36738409 29.5 35.375 C28.64535156 35.39949219 27.79070312 35.42398438 26.91015625 35.44921875 C23.11789772 35.46696723 20.72439268 35.4495463 17.45703125 33.421875 C15.50635615 30.17946599 15.35652415 27.64070082 15.1875 23.875 C15.08501953 22.01488281 15.08501953 22.01488281 14.98046875 20.1171875 C15 17 15 17 16 15 C13.03 15 10.06 15 7 15 C7.04125 16.093125 7.0825 17.18625 7.125 18.3125 C7 22 7 22 5 25 C1.9609375 25.29296875 1.9609375 25.29296875 -1.625 25.1875 C-2.81351563 25.16042969 -4.00203125 25.13335938 -5.2265625 25.10546875 C-6.14179687 25.07066406 -7.05703125 25.03585938 -8 25 C-9.36088895 20.91733314 -8.68398693 18.24071899 -8 14 C-7.67 13.67 -7.34 13.34 -7 13 C-8.65 13.33 -10.3 13.66 -12 14 C-12.66 17.63 -13.32 21.26 -14 25 C-12.35 25.33 -10.7 25.66 -9 26 C-6.78824921 31.0378768 -7.09119713 33.87637126 -9 39 C-10 40 -10 40 -12.46875 40.1328125 C-13.96921875 40.12894531 -13.96921875 40.12894531 -15.5 40.125 C-16.5003125 40.12757812 -17.500625 40.13015625 -18.53125 40.1328125 C-21 40 -21 40 -22 39 C-22.04092937 36.66702567 -22.04241723 34.33294775 -22 32 C-22.75925781 32.09539063 -23.51851562 32.19078125 -24.30078125 32.2890625 C-25.29464844 32.39992187 -26.28851563 32.51078125 -27.3125 32.625 C-28.29863281 32.74101563 -29.28476562 32.85703125 -30.30078125 32.9765625 C-33 33 -33 33 -36 31 C-36.66128363 24.60759153 -35.70377075 18.64612733 -31.80078125 13.3828125 C-28.43932124 10.80156121 -24.09102572 10.3292663 -20.03125 9.35546875 C-16.14041113 7.61562199 -15.6953236 5.79832033 -14 2 C-9.63027348 -1.04669631 -5.08208173 -1.39757248 0 0 Z " fill="#030305" transform="translate(60,6)"/>
<path d="M0 0 C1.7578125 1.6171875 1.7578125 1.6171875 3 3 C3.99 2.67 4.98 2.34 6 2 C6 1.34 6 0.68 6 0 C12.16645379 -2.52653315 16.43592388 -3.31281522 23 -2 C23 -1.34 23 -0.68 23 0 C23.86625 0.061875 23.86625 0.061875 24.75 0.125 C27.41199214 1.16021916 28.60688003 2.47919919 30.13085938 4.86914062 C32.09293509 9.67953299 31.77393751 15.06419326 31.875 20.1875 C31.92140625 21.37537109 31.9678125 22.56324219 32.015625 23.78710938 C32.27518587 32.58722119 32.27518587 32.58722119 30 36 C27.1796875 36.29296875 27.1796875 36.29296875 23.875 36.1875 C22.23144531 36.14689453 22.23144531 36.14689453 20.5546875 36.10546875 C19.71164063 36.07066406 18.86859375 36.03585938 18 36 C17.970271 35.03175293 17.970271 35.03175293 17.93994141 34.04394531 C17.84453672 31.11222779 17.73492029 28.18120768 17.625 25.25 C17.5940625 24.23421875 17.563125 23.2184375 17.53125 22.171875 C17.47324219 20.70234375 17.47324219 20.70234375 17.4140625 19.203125 C17.3826416 18.30239258 17.3512207 17.40166016 17.31884766 16.47363281 C16.98862744 13.91177125 16.29048327 12.21872563 15 10 C12.08347826 9.83318891 12.08347826 9.83318891 9 10 C6.75620599 11.81828583 6.75620599 11.81828583 6.77294922 14.43017578 C6.78865967 15.92266846 6.78865967 15.92266846 6.8046875 17.4453125 C6.81435547 19.05986328 6.81435547 19.05986328 6.82421875 20.70703125 C6.84097656 21.83496094 6.85773438 22.96289062 6.875 24.125 C6.88402344 25.26066406 6.89304688 26.39632812 6.90234375 27.56640625 C6.92596801 30.37769337 6.9618399 33.18887262 7 36 C2.71 36 -1.58 36 -6 36 C-7.16801412 33.66397176 -7.07586489 32.41627831 -6.9921875 29.82421875 C-6.96705078 28.58188477 -6.96705078 28.58188477 -6.94140625 27.31445312 C-6.897426 25.57464607 -6.84544912 23.83502127 -6.78515625 22.09570312 C-6.7032562 17.28965931 -6.66735916 13.80431391 -10 10 C-13.04253508 9.41654524 -13.04253508 9.41654524 -16 10 C-18.56006715 12.56006715 -18.28476023 13.63413977 -18.37890625 17.19140625 C-18.41306641 18.21814453 -18.44722656 19.24488281 -18.48242188 20.30273438 C-18.50884766 21.37845703 -18.53527344 22.45417969 -18.5625 23.5625 C-18.62216677 25.68892214 -18.6857513 27.81523924 -18.75390625 29.94140625 C-18.77783447 30.88701416 -18.8017627 31.83262207 -18.82641602 32.80688477 C-19 35 -19 35 -20 36 C-22.01964199 36.07244053 -24.04167124 36.08377188 -26.0625 36.0625 C-27.16722656 36.05347656 -28.27195312 36.04445312 -29.41015625 36.03515625 C-30.69212891 36.01775391 -30.69212891 36.01775391 -32 36 C-32.02464928 30.74894558 -32.04283568 25.49792455 -32.05493164 20.24682617 C-32.05997218 18.45905979 -32.06680454 16.67129755 -32.07543945 14.88354492 C-32.0875173 12.31948832 -32.09323094 9.75548603 -32.09765625 7.19140625 C-32.10281754 6.3872377 -32.10797882 5.58306915 -32.11329651 4.75453186 C-32.11349215 2.83598285 -32.06201983 0.91754632 -32 -1 C-30.26150372 -2.73849628 -27.9213363 -2.17216296 -25.5625 -2.1875 C-24.57378906 -2.20167969 -23.58507812 -2.21585937 -22.56640625 -2.23046875 C-20 -2 -20 -2 -18 0 C-17.45472656 -0.25136719 -16.90945312 -0.50273438 -16.34765625 -0.76171875 C-10.16451383 -3.26668414 -5.9235209 -3.21154748 0 0 Z " fill="#040404" transform="translate(152,76)"/>
<path d="M0 0 C0 5.61 0 11.22 0 17 C1.65 17.33 3.3 17.66 5 18 C5.33 14.7 5.66 11.4 6 8 C9.92296433 6.69234522 12.86002433 6.8028583 17 7 C20.00617269 10.00617269 19.59585316 12.82381598 20 17 C20.83978394 17.02187378 20.83978394 17.02187378 21.6965332 17.04418945 C24.23588137 17.11871352 26.77392078 17.21535581 29.3125 17.3125 C30.63411133 17.34633789 30.63411133 17.34633789 31.98242188 17.38085938 C33.25375977 17.4340332 33.25375977 17.4340332 34.55078125 17.48828125 C35.72120972 17.52755737 35.72120972 17.52755737 36.9152832 17.56762695 C39.57108023 18.1184428 40.45544988 18.77466227 42 21 C42.38818359 23.42016602 42.38818359 23.42016602 42.3984375 26.25390625 C42.40423828 27.78241211 42.40423828 27.78241211 42.41015625 29.34179688 C42.39855469 30.40462891 42.38695312 31.46746094 42.375 32.5625 C42.38660156 33.62919922 42.39820313 34.69589844 42.41015625 35.79492188 C42.40628906 36.81263672 42.40242188 37.83035156 42.3984375 38.87890625 C42.39505371 39.8129126 42.39166992 40.74691895 42.38818359 41.70922852 C42.26008301 42.46518311 42.13198242 43.2211377 42 44 C38.84685215 46.10209857 38.13896919 46.2434761 34.55078125 46.1953125 C33.27944336 46.18564453 33.27944336 46.18564453 31.98242188 46.17578125 C30.66081055 46.15064453 30.66081055 46.15064453 29.3125 46.125 C28.41982422 46.11597656 27.52714844 46.10695312 26.60742188 46.09765625 C24.40467686 46.07409748 22.20247412 46.04120329 20 46 C19.90912109 47.06541016 19.90912109 47.06541016 19.81640625 48.15234375 C19.73261719 49.07144531 19.64882813 49.99054688 19.5625 50.9375 C19.48128906 51.85402344 19.40007813 52.77054688 19.31640625 53.71484375 C19 56 19 56 18 57 C16.2127943 57.15135944 14.41838124 57.22175778 12.625 57.25 C11.64789063 57.27578125 10.67078125 57.3015625 9.6640625 57.328125 C7 57 7 57 5.1640625 55.8984375 C3.4212393 53.05611509 3.676887 50.67239643 3.75 47.375 C3.76546875 46.20710938 3.7809375 45.03921875 3.796875 43.8359375 C4 41 4 41 5 40 C7.67058851 39.85884839 10.32432238 39.95752893 13 40 C14.2039337 36.24600202 14.09877617 32.66782588 14.0625 28.75 C14.05347656 27.48671875 14.04445313 26.2234375 14.03515625 24.921875 C14.02355469 23.95765625 14.01195313 22.9934375 14 22 C12.35 22 10.7 22 9 22 C9 25.63 9 29.26 9 33 C5.21887676 34.40692958 2.05277796 35.45030866 -2 35 C-5.15771423 31.84228577 -4.62506773 28.37420978 -5 24 C-8.96 23.67 -12.92 23.34 -17 23 C-17.16122862 15.90594091 -17.25054306 9.75162917 -15 3 C-10.68594741 -1.31405259 -5.57506019 -1.11501204 0 0 Z " fill="#030303" transform="translate(25,42)"/>
<path d="M0 0 C0.78246094 0.17015625 1.56492187 0.3403125 2.37109375 0.515625 C2.70109375 0.185625 3.03109375 -0.144375 3.37109375 -0.484375 C5.39073574 -0.55681553 7.41276499 -0.56814688 9.43359375 -0.546875 C11.09068359 -0.53333984 11.09068359 -0.53333984 12.78125 -0.51953125 C13.63589844 -0.50792969 14.49054688 -0.49632813 15.37109375 -0.484375 C17.05463805 26.57258703 17.05463805 26.57258703 15.37109375 37.515625 C11.08109375 37.515625 6.79109375 37.515625 2.37109375 37.515625 C2.04109375 36.855625 1.71109375 36.195625 1.37109375 35.515625 C0.75234375 36.03125 0.13359375 36.546875 -0.50390625 37.078125 C-5.0301625 39.16020287 -8.83636037 38.56055714 -13.62890625 37.515625 C-16.75390625 36.078125 -16.75390625 36.078125 -18.62890625 34.515625 C-18.62890625 33.855625 -18.62890625 33.195625 -18.62890625 32.515625 C-19.61890625 32.185625 -20.60890625 31.855625 -21.62890625 31.515625 C-24.9053661 24.59865421 -26.10165382 17.41476487 -23.86328125 9.96875 C-21.29554436 4.58011906 -17.90962197 1.59130066 -12.47265625 -0.82421875 C-8.077175 -1.84459833 -4.33494975 -1.03817905 0 0 Z M-10.06640625 12.453125 C-11.9795098 16.20280796 -11.78249552 18.44184947 -11.28125 22.52734375 C-10.73175747 24.89314637 -10.73175747 24.89314637 -7.62890625 26.515625 C-4.05165295 26.97229563 -2.2943232 26.95339931 0.74609375 24.953125 C3.00435829 21.56572819 2.93225643 19.5139091 2.37109375 15.515625 C0.91476251 12.48623806 0.91476251 12.48623806 -1.62890625 10.515625 C-5.52766624 9.70338334 -6.94041426 9.96836213 -10.06640625 12.453125 Z " fill="#030303" transform="translate(313.62890625,74.484375)"/>
<path d="M0 0 C1.23105469 0.19207031 2.46210938 0.38414063 3.73046875 0.58203125 C6.8125 1.1875 6.8125 1.1875 8.8125 2.1875 C8.8125 2.8475 8.8125 3.5075 8.8125 4.1875 C10.2975 4.6825 10.2975 4.6825 11.8125 5.1875 C16.18840593 10.93869065 16.56322437 16.07407888 15.8125 23.1875 C14.8125 24.1875 14.8125 24.1875 11.171875 24.25 C8.86305105 24.22590792 6.55471018 24.18736864 4.24609375 24.1484375 C0.28601388 24.1074004 -3.31881362 24.19711629 -7.1875 25.1875 C-3.82555494 26.08131215 -3.82555494 26.08131215 -0.4375 25.71875 C2.59444306 25.00287456 5.45168548 25.09389185 8.5625 25.125 C10.31820313 25.13853516 10.31820313 25.13853516 12.109375 25.15234375 C13.00140625 25.16394531 13.8934375 25.17554687 14.8125 25.1875 C15.3075 26.1775 15.3075 26.1775 15.8125 27.1875 C8.43740723 37.59554512 8.43740723 37.59554512 2.8125 39.1875 C-5.20728644 39.95076243 -10.87386193 39.51516365 -17.375 34.5 C-21.56554001 29.15344895 -22.74741611 23.36897656 -22.55078125 16.65234375 C-21.78617387 11.46452377 -19.04497885 7.47371827 -16.1875 3.1875 C-15.1975 3.1875 -14.2075 3.1875 -13.1875 3.1875 C-12.8575 2.5275 -12.5275 1.8675 -12.1875 1.1875 C-7.91290881 -1.19078456 -4.73416758 -0.77323074 0 0 Z M-6.1875 11.1875 C-6.8475 12.5075 -7.5075 13.8275 -8.1875 15.1875 C-4.5575 15.1875 -0.9275 15.1875 2.8125 15.1875 C2.4825 14.1975 2.1525 13.2075 1.8125 12.1875 C-0.89629335 10.83310332 -3.19683268 11.12248549 -6.1875 11.1875 Z " fill="#030304" transform="translate(355.1875,73.8125)"/>
<path d="M0 0 C4.83821415 2.85713469 8.75762477 6.28219305 10.3828125 11.796875 C11.3857445 18.66802613 9.75084204 24.31081592 6.6875 30.4375 C6.0275 30.4375 5.3675 30.4375 4.6875 30.4375 C4.6875 31.0975 4.6875 31.7575 4.6875 32.4375 C-1.15828304 36.82183728 -5.05123381 37.9136486 -12.3125 37.4375 C-15.37698413 36.59818269 -18.34426288 35.568257 -21.3125 34.4375 C-21.3125 33.7775 -21.3125 33.1175 -21.3125 32.4375 C-22.6325 31.7775 -23.9525 31.1175 -25.3125 30.4375 C-25.3125 29.7775 -25.3125 29.1175 -25.3125 28.4375 C-25.9725 28.4375 -26.6325 28.4375 -27.3125 28.4375 C-29.9722643 22.53282325 -30.58791526 16.27631145 -28.51953125 10.05078125 C-25.94847774 4.72150942 -23.11661961 1.2619968 -17.46484375 -0.984375 C-11.64972247 -2.54633135 -5.53232156 -2.45880958 0 0 Z M-14.6875 10.9375 C-16.97803108 14.46139397 -16.98295833 17.34770416 -16.3125 21.4375 C-15.44825439 24.03619315 -15.44825439 24.03619315 -13.3125 25.4375 C-8.69078143 26.07596628 -8.69078143 26.07596628 -4.6171875 24.1875 C-2.22023243 20.97242254 -2.81524605 17.26359287 -3.3125 13.4375 C-4.22563108 10.79823536 -4.22563108 10.79823536 -6.3125 9.4375 C-9.88847151 8.828824 -11.60940766 8.99344168 -14.6875 10.9375 Z " fill="#040404" transform="translate(105.3125,75.5625)"/>
<path d="M0 0 C11.68208573 -1.07755696 11.68208573 -1.07755696 14.90625 1.55859375 C16.1875 3.5 16.1875 3.5 18 7 C18.66 7 19.32 7 20 7 C20.309375 6.21625 20.61875 5.4325 20.9375 4.625 C22 2 22 2 23 0 C26.96 0 30.92 0 35 0 C35 3.58179266 34.15497104 4.5576607 32.125 7.4375 C30.17497 10.22123848 28.44506832 12.9204612 27 16 C26.34 16 25.68 16 25 16 C25 17.65 25 19.3 25 21 C25.66 21 26.32 21 27 21 C27.83848804 22.45537568 28.67063934 23.91440373 29.5 25.375 C29.9640625 26.18710938 30.428125 26.99921875 30.90625 27.8359375 C32 30 32 30 32 32 C32.66 32 33.32 32 34 32 C34.66 33.65 35.32 35.3 36 37 C34.06076948 38.93923052 30.63460405 38.21866472 28.0625 38.25 C26.79535156 38.27578125 25.52820313 38.3015625 24.22265625 38.328125 C23.15917969 38.21984375 22.09570312 38.1115625 21 38 C19 35 19 35 19 32 C16.44888446 33.05563401 15.21144919 33.64216291 13.78125 36.0625 C12 38 12 38 8.86328125 38.390625 C7.69152344 38.34421875 6.51976562 38.2978125 5.3125 38.25 C3.54326172 38.19585937 3.54326172 38.19585937 1.73828125 38.140625 C0.83464844 38.09421875 -0.06898438 38.0478125 -1 38 C0.36832547 34.18237194 2.12996136 31.15890947 4.5 27.875 C5.1084375 27.02679688 5.716875 26.17859375 6.34375 25.3046875 C7.16359375 24.16386719 7.16359375 24.16386719 8 23 C8.66 22.01 9.32 21.02 10 20 C9.66154053 19.4652002 9.32308105 18.93040039 8.97436523 18.37939453 C7.45372724 15.96640767 5.94550954 13.54589716 4.4375 11.125 C3.90447266 10.28324219 3.37144531 9.44148438 2.82226562 8.57421875 C2.32275391 7.76855469 1.82324219 6.96289062 1.30859375 6.1328125 C0.60947876 5.01737061 0.60947876 5.01737061 -0.10375977 3.87939453 C-0.39951904 3.25919434 -0.69527832 2.63899414 -1 2 C-0.67 1.34 -0.34 0.68 0 0 Z " fill="#030303" transform="translate(372,74)"/>
<path d="M0 0 C2.9375 1.0625 2.9375 1.0625 5 3 C5.40332641 5.32225825 5.74268345 7.65706514 6 10 C7.10859375 10.03738281 8.2171875 10.07476562 9.359375 10.11328125 C10.82294974 10.17895448 12.28648991 10.24540135 13.75 10.3125 C14.84441406 10.34633789 14.84441406 10.34633789 15.9609375 10.38085938 C18.98408504 10.53201675 21.65135582 10.86624343 24.484375 11.953125 C27.05776667 15.42853024 26.57522713 19.24045309 26.5 23.4375 C26.51546875 24.29666016 26.5309375 25.15582031 26.546875 26.04101562 C26.5231591 29.8622408 26.44336537 32.28910516 24.39453125 35.57421875 C19.02788648 38.76969239 11.54110421 37.56748465 5.5625 36.609375 C3.6875 36.125 3.6875 36.125 1 35 C-0.585869 31.828262 -0.37866445 28.36486178 -0.5625 24.875 C-0.60568359 24.12089844 -0.64886719 23.36679687 -0.69335938 22.58984375 C-0.7994832 20.72678112 -0.90025001 18.86341476 -1 17 C-2.27875 16.87625 -3.5575 16.7525 -4.875 16.625 C-8.75 16.25 -8.75 16.25 -11 14 C-11.30078125 11.25 -11.30078125 11.25 -11.3125 8 C-11.32925781 6.9275 -11.34601562 5.855 -11.36328125 4.75 C-11.24339844 3.8425 -11.12351563 2.935 -11 2 C-7.27686379 -0.4820908 -4.31065887 -0.52097632 0 0 Z " fill="#43B1EB" transform="translate(68,33)"/>
<path d="M0 0 C0.25 7.625 0.25 7.625 -2 11 C-4.09375 11.51953125 -4.09375 11.51953125 -6.5 11.8125 C-8.90365962 12.21889632 -8.90365962 12.21889632 -11 13 C-12.68304356 15.71511048 -12.68304356 15.71511048 -13 19 C-13.309375 20.670625 -13.309375 20.670625 -13.625 22.375 C-13.74875 23.24125 -13.8725 24.1075 -14 25 C-12.35 25.33 -10.7 25.66 -9 26 C-6.78824921 31.0378768 -7.09119713 33.87637126 -9 39 C-10 40 -10 40 -12.46875 40.1328125 C-13.96921875 40.12894531 -13.96921875 40.12894531 -15.5 40.125 C-16.5003125 40.12757812 -17.500625 40.13015625 -18.53125 40.1328125 C-21 40 -21 40 -22 39 C-22.04092937 36.66702567 -22.04241723 34.33294775 -22 32 C-22.75925781 32.09539063 -23.51851562 32.19078125 -24.30078125 32.2890625 C-25.29464844 32.39992187 -26.28851563 32.51078125 -27.3125 32.625 C-28.29863281 32.74101563 -29.28476562 32.85703125 -30.30078125 32.9765625 C-33 33 -33 33 -36 31 C-36.66128363 24.60759153 -35.70377075 18.64612733 -31.80078125 13.3828125 C-28.43932124 10.80156121 -24.09102572 10.3292663 -20.03125 9.35546875 C-16.14041113 7.61562199 -15.6953236 5.79832033 -14 2 C-9.63027348 -1.04669631 -5.08208173 -1.39757248 0 0 Z " fill="#39B5F7" transform="translate(60,6)"/>
<path d="M0 0 C1.50046875 0.00386719 1.50046875 0.00386719 3.03125 0.0078125 C4.0315625 0.00523438 5.031875 0.00265625 6.0625 0 C8.53125 0.1328125 8.53125 0.1328125 9.53125 1.1328125 C9.62956146 2.63151298 9.65923456 4.13479789 9.66064453 5.63671875 C9.66379669 6.59441162 9.66694885 7.55210449 9.67019653 8.53881836 C9.6681723 9.58046143 9.66614807 10.62210449 9.6640625 11.6953125 C9.66501923 12.75693604 9.66597595 13.81855957 9.66696167 14.91235352 C9.66764364 17.16194722 9.66578819 19.41154287 9.66162109 21.66113281 C9.6562731 25.11788321 9.66156554 28.57450367 9.66796875 32.03125 C9.66730797 34.21093779 9.66602682 36.3906255 9.6640625 38.5703125 C9.66608673 39.61195557 9.66811096 40.65359863 9.67019653 41.72680664 C9.66704437 42.68449951 9.66389221 43.64219238 9.66064453 44.62890625 C9.65945114 45.90012329 9.65945114 45.90012329 9.65823364 47.19702148 C9.53125 49.1328125 9.53125 49.1328125 8.53125 50.1328125 C6.51160801 50.20525303 4.48957876 50.21658438 2.46875 50.1953125 C1.36402344 50.18628906 0.25929688 50.17726562 -0.87890625 50.16796875 C-2.16087891 50.15056641 -2.16087891 50.15056641 -3.46875 50.1328125 C-3.49401838 43.17277803 -3.51158222 36.2127553 -3.52368164 29.25268555 C-3.52872341 26.88288938 -3.53555665 24.51309635 -3.54418945 22.14331055 C-3.5562619 18.74527211 -3.56197971 15.34727465 -3.56640625 11.94921875 C-3.57156754 10.88256485 -3.57672882 9.81591095 -3.58204651 8.7169342 C-3.58212204 7.73599289 -3.58219757 6.75505157 -3.58227539 5.74438477 C-3.584496 4.87612564 -3.58671661 4.00786652 -3.58900452 3.11329651 C-3.40787598 0.13027208 -2.99687511 0.16122429 0 0 Z " fill="#020202" transform="translate(275.46875,61.8671875)"/>
<path d="M0 0 C1.77406707 0.06451153 3.54572644 0.20183279 5.3125 0.375 C6.76076172 0.51035156 6.76076172 0.51035156 8.23828125 0.6484375 C12.85402965 1.23601509 12.85402965 1.23601509 15 2 C17.60904748 7.08764259 17.198045 12.43273495 17 18 C13.18151782 20.12324394 10.37945725 20.23887949 6 20 C5.01 19.67 4.02 19.34 3 19 C3 21.31 3 23.62 3 26 C0.20046988 27.90368048 -1.15773599 27.99184124 -4.625 27.8125 C-8 27 -8 27 -10 24 C-10.25760279 21.30547479 -10.08900053 18.71451625 -10 16 C-7.03 15.01 -4.06 14.02 -1 13 C-1.01160156 12.14535156 -1.02320312 11.29070313 -1.03515625 10.41015625 C-1.04417969 9.30542969 -1.05320312 8.20070313 -1.0625 7.0625 C-1.07410156 5.96035156 -1.08570312 4.85820313 -1.09765625 3.72265625 C-1 1 -1 1 0 0 Z " fill="#030305" transform="translate(108,33)"/>
<path d="M0 0 C0.25 7.625 0.25 7.625 -2 11 C-4.09375 11.51953125 -4.09375 11.51953125 -6.5 11.8125 C-8.90365962 12.21889632 -8.90365962 12.21889632 -11 13 C-12.68304356 15.71511048 -12.68304356 15.71511048 -13 19 C-13.309375 20.670625 -13.309375 20.670625 -13.625 22.375 C-13.74875 23.24125 -13.8725 24.1075 -14 25 C-13.01 25 -12.02 25 -11 25 C-11 25.66 -11 26.32 -11 27 C-12.65 26.67 -14.3 26.34 -16 26 C-15.67 20.72 -15.34 15.44 -15 10 C-20.60722334 12.64856825 -20.60722334 12.64856825 -24 15 C-25.32 15 -26.64 15 -28 15 C-28 15.66 -28 16.32 -28 17 C-28.66 17 -29.32 17 -30 17 C-30.66 19.97 -31.32 22.94 -32 26 C-32.66 26 -33.32 26 -34 26 C-34 27.32 -34 28.64 -34 30 C-32.95199219 29.96519531 -32.95199219 29.96519531 -31.8828125 29.9296875 C-30.97273438 29.91164063 -30.06265625 29.89359375 -29.125 29.875 C-28.22007813 29.85179688 -27.31515625 29.82859375 -26.3828125 29.8046875 C-24 30 -24 30 -22 32 C-23.76913824 32.22226864 -25.54044371 32.42733873 -27.3125 32.625 C-28.29863281 32.74101563 -29.28476562 32.85703125 -30.30078125 32.9765625 C-33 33 -33 33 -36 31 C-36.66128363 24.60759153 -35.70377075 18.64612733 -31.80078125 13.3828125 C-28.43932124 10.80156121 -24.09102572 10.3292663 -20.03125 9.35546875 C-16.14041113 7.61562199 -15.6953236 5.79832033 -14 2 C-9.63027348 -1.04669631 -5.08208173 -1.39757248 0 0 Z " fill="#4C9FCD" transform="translate(60,6)"/>
<path d="M0 0 C0.02684312 2.81256281 0.04676188 5.62487241 0.0625 8.4375 C0.07087891 9.23994141 0.07925781 10.04238281 0.08789062 10.86914062 C0.0965143 12.91295221 0.0522815 14.95683902 0 17 C-1 18 -1 18 -4.37890625 18.09765625 C-5.77347077 18.09098369 -7.16801743 18.07902532 -8.5625 18.0625 C-9.27341797 18.05798828 -9.98433594 18.05347656 -10.71679688 18.04882812 C-12.47790013 18.03700864 -14.23896036 18.01907263 -16 18 C-16.95619733 14.00204108 -17.1039592 10.29196078 -17.0625 6.1875 C-17.05347656 5.02605469 -17.04445313 3.86460938 -17.03515625 2.66796875 C-17.02355469 1.78753906 -17.01195313 0.90710937 -17 0 C-11.22506551 -1.03800534 -5.67416229 -1.89138743 0 0 Z " fill="#37B5FB" transform="translate(89,48)"/>
<path d="M0 0 C2.08268593 -0.08126087 4.16628658 -0.13930839 6.25 -0.1875 C7.99023438 -0.23970703 7.99023438 -0.23970703 9.765625 -0.29296875 C13 0 13 0 15.390625 0.921875 C18.08072494 4.3954992 17.57633202 8.17880943 17.5 12.4375 C17.51546875 13.29666016 17.5309375 14.15582031 17.546875 15.04101562 C17.5231591 18.8622408 17.44336537 21.28910516 15.39453125 24.57421875 C10.02788648 27.76969239 2.54110421 26.56748465 -3.4375 25.609375 C-5.3125 25.125 -5.3125 25.125 -8 24 C-9.59412284 20.81175432 -9.10174735 17.37103338 -9.0625 13.875 C-9.05798828 13.12089844 -9.05347656 12.36679687 -9.04882812 11.58984375 C-9.03703499 9.72652873 -9.01909942 7.86325445 -9 6 C-8.34 5.67 -7.68 5.34 -7 5 C-6.34 5.66 -5.68 6.32 -5 7 C-5.33 7.66 -5.66 8.32 -6 9 C-6.15020656 13.5813002 -5.9861179 17.51551146 -5 22 C-2.18743719 22.02684312 0.62487241 22.04676188 3.4375 22.0625 C4.64116211 22.07506836 4.64116211 22.07506836 5.86914062 22.08789062 C7.91295221 22.0965143 9.95683902 22.0522815 12 22 C13.20495909 21.01592689 13.20495909 21.01592689 13.11352539 19.14233398 C13.10567017 17.95619507 13.10567017 17.95619507 13.09765625 16.74609375 C13.09282227 15.46508789 13.09282227 15.46508789 13.08789062 14.15820312 C13.07951172 13.26037109 13.07113281 12.36253906 13.0625 11.4375 C13.05798828 10.53580078 13.05347656 9.63410156 13.04882812 8.70507812 C13.03700244 6.47002411 13.01906638 4.23500398 13 2 C8.71 2 4.42 2 0 2 C0 1.34 0 0.68 0 0 Z " fill="#59AAD6" transform="translate(77,44)"/>
<path d="M0 0 C-0.33 3.63 -0.66 7.26 -1 11 C-5.37655074 11.70024812 -9.56422358 12.21122745 -14 12 C-15 11 -15 11 -15.125 7.5625 C-15 4 -15 4 -14 2 C-13.34 2 -12.68 2 -12 2 C-12 1.34 -12 0.68 -12 0 C-4.5 -1.125 -4.5 -1.125 0 0 Z " fill="#37B5FA" transform="translate(44,21)"/>
<path d="M0 0 C1.3271261 3.9813783 1.06915913 7.85045227 1 12 C-0.258125 12.04125 -1.51625 12.0825 -2.8125 12.125 C-3.52019531 12.14820312 -4.22789063 12.17140625 -4.95703125 12.1953125 C-7 12 -7 12 -10 10 C-10.51171875 7.6171875 -10.51171875 7.6171875 -10.6875 4.875 C-10.75324219 3.96492188 -10.81898437 3.05484375 -10.88671875 2.1171875 C-10.92410156 1.41851562 -10.96148437 0.71984375 -11 0 C-3.57142857 -1.28571429 -3.57142857 -1.28571429 0 0 Z " fill="#050505" transform="translate(47,103)"/>
<path d="M0 0 C2.1875 2 2.1875 2 2.5 5.1875 C2.3453125 6.5796875 2.3453125 6.5796875 2.1875 8 C2.8475 8 3.5075 8 4.1875 8 C3.5275 9.32 2.8675 10.64 2.1875 12 C-5.5625 11.25 -5.5625 11.25 -7.8125 9 C-8.08241906 6.31160615 -7.89987357 3.70858064 -7.8125 1 C-4.66365564 -0.70937265 -3.44841334 -1.22610252 0 0 Z " fill="#3BB3F7" transform="translate(66.8125,36)"/>
<path d="M0 0 C0 2.31 0 4.62 0 7 C-3.3 7.66 -6.6 8.32 -10 9 C-10.99 7.68 -11.98 6.36 -13 5 C-8.69993829 0.34159981 -6.26860113 -2.01490751 0 0 Z " fill="#49AAE2" transform="translate(58,8)"/>
<path d="M0 0 C1.8125 0.26953125 1.8125 0.26953125 4 0.8125 C5.0828125 1.06966797 5.0828125 1.06966797 6.1875 1.33203125 C8 2 8 2 9 4 C9.039992 5.99960012 9.04346799 8.00047242 9 10 C5.86022274 10.98678714 4.32881171 11.11691083 1.1875 10 C-1 8 -1 8 -1.375 4.375 C-1 1 -1 1 0 0 Z " fill="#030305" transform="translate(105,19)"/>
<path d="M0 0 C3 1.0625 3 1.0625 5 3 C5.3125 6.6875 5.3125 6.6875 5 10 C4.67 10 4.34 10 4 10 C3.34 7.69 2.68 5.38 2 3 C-1.83225427 2.91087781 -5.26562152 3.12132271 -9 4 C-8.67 6.64 -8.34 9.28 -8 12 C-5.36 12.99 -2.72 13.98 0 15 C-0.33 15.66 -0.66 16.32 -1 17 C-8.75 16.25 -8.75 16.25 -11 14 C-11.30078125 11.25 -11.30078125 11.25 -11.3125 8 C-11.32925781 6.9275 -11.34601562 5.855 -11.36328125 4.75 C-11.24339844 3.8425 -11.12351563 2.935 -11 2 C-7.27629767 -0.48246822 -4.31088053 -0.51998948 0 0 Z " fill="#4C91B5" transform="translate(68,33)"/>
<path d="M0 0 C2 1 2 1 2.75 3.125 C3.06970493 6.80160671 2.19916969 9.535732 1 13 C0 14 0 14 -2.46875 14.1328125 C-3.96921875 14.12894531 -3.96921875 14.12894531 -5.5 14.125 C-6.5003125 14.12757812 -7.500625 14.13015625 -8.53125 14.1328125 C-11 14 -11 14 -12 13 C-12.04092937 10.66702567 -12.04241723 8.33294775 -12 6 C-10.68 6 -9.36 6 -8 6 C-7.67 7.32 -7.34 8.64 -7 10 C-5.35 10 -3.7 10 -2 10 C-1.34 6.7 -0.68 3.4 0 0 Z " fill="#479DC5" transform="translate(50,32)"/>
<path d="M0 0 C-3 2 -3 2 -7 2 C-7 2.66 -7 3.32 -7 4 C-7.66 4 -8.32 4 -9 4 C-9.66 6.97 -10.32 9.94 -11 13 C-11.66 13 -12.32 13 -13 13 C-13 14.32 -13 15.64 -13 17 C-11.95199219 16.96519531 -11.95199219 16.96519531 -10.8828125 16.9296875 C-9.97273438 16.91164063 -9.06265625 16.89359375 -8.125 16.875 C-7.22007813 16.85179688 -6.31515625 16.82859375 -5.3828125 16.8046875 C-3 17 -3 17 -1 19 C-2.76913824 19.22226864 -4.54044371 19.42733873 -6.3125 19.625 C-7.29863281 19.74101563 -8.28476562 19.85703125 -9.30078125 19.9765625 C-12 20 -12 20 -15 18 C-15.75724512 13.6837028 -15.78162819 11.37715443 -13.60546875 7.54296875 C-6.42430376 -2.14143459 -6.42430376 -2.14143459 0 0 Z " fill="#46AEDD" transform="translate(39,19)"/>
<path d="M0 0 C0.25 7.625 0.25 7.625 -2 11 C-5.625 11.6875 -5.625 11.6875 -9 12 C-8.67 11.34 -8.34 10.68 -8 10 C-4.9375 9.375 -4.9375 9.375 -2 9 C-2.33 6.69 -2.66 4.38 -3 2 C-7.455 2.495 -7.455 2.495 -12 3 C-12.33 3.99 -12.66 4.98 -13 6 C-13.66 6 -14.32 6 -15 6 C-14.73046875 4.11328125 -14.73046875 4.11328125 -14 2 C-9.56331865 -0.93308051 -5.08799491 -1.3991986 0 0 Z " fill="#4587A6" transform="translate(60,6)"/>
<path d="M0 0 C1.16306443 3.54950034 0.92365049 6.55823948 0.5625 10.25 C0.46066406 11.32765625 0.35882813 12.4053125 0.25390625 13.515625 C0.17011719 14.33546875 0.08632813 15.1553125 0 16 C1.32 16.33 2.64 16.66 4 17 C4.33 16.34 4.66 15.68 5 15 C5 16.65 5 18.3 5 20 C2.0625 19.625 2.0625 19.625 -1 19 C-2.38226016 16.23547967 -2.09525387 13.9538637 -2.0625 10.875 C-2.05347656 9.77929688 -2.04445313 8.68359375 -2.03515625 7.5546875 C-2.02355469 6.71164063 -2.01195312 5.86859375 -2 5 C-4.31 5 -6.62 5 -9 5 C-4.32258065 0 -4.32258065 0 0 0 Z " fill="#40B0E1" transform="translate(45,16)"/>
<path d="M0 0 C2.08268593 -0.08126087 4.16628658 -0.13930839 6.25 -0.1875 C7.99023438 -0.23970703 7.99023438 -0.23970703 9.765625 -0.29296875 C13 0 13 0 15.39453125 0.91796875 C18.08455721 4.40649389 17.53578812 8.23239311 17.4375 12.5 C17.44458984 13.36753906 17.45167969 14.23507813 17.45898438 15.12890625 C17.394553 21.5423059 17.394553 21.5423059 15.47290039 23.77148438 C14.7438147 24.37959961 14.7438147 24.37959961 14 25 C14.15339844 24.34644531 14.30679688 23.69289063 14.46484375 23.01953125 C15.13379594 19.24507841 15.35407297 15.51094004 15.5625 11.6875 C15.60568359 10.94693359 15.64886719 10.20636719 15.69335938 9.44335938 C15.79870432 7.62908536 15.89978316 5.8145645 16 4 C12.68455701 2.89485234 9.79589889 2.67892369 6.3125 2.4375 C5.13300781 2.35371094 3.95351562 2.26992188 2.73828125 2.18359375 C1.83464844 2.12300781 0.93101563 2.06242187 0 2 C0 1.34 0 0.68 0 0 Z " fill="#4889AD" transform="translate(77,44)"/>
<path d="M0 0 C1.485 0.99 1.485 0.99 3 2 C2.67 2.66 2.34 3.32 2 4 C1.71119188 10.59501253 1.71119188 10.59501253 3 17 C4.9568288 18.82337753 4.9568288 18.82337753 7 20 C4.125 20.1875 4.125 20.1875 1 20 C-1.5139603 16.22905955 -1.26026442 13.23320555 -1.1875 8.875 C-1.18685547 8.13378906 -1.18621094 7.39257812 -1.18554688 6.62890625 C-1.14039459 1.14039459 -1.14039459 1.14039459 0 0 Z " fill="#529BC0" transform="translate(69,49)"/>
<path d="M0 0 C0.33 0 0.66 0 1 0 C1.33 1.65 1.66 3.3 2 5 C4.31 5 6.62 5 9 5 C9.33 6.65 9.66 8.3 10 10 C6.04 9.67 2.08 9.34 -2 9 C-2 7.68 -2 6.36 -2 5 C-1.34 5 -0.68 5 0 5 C0 3.35 0 1.7 0 0 Z " fill="#43B6F2" transform="translate(28,27)"/>
<path d="M0 0 C2.375 -0.125 2.375 -0.125 5 0 C7 2 7 2 7.125 5.125 C7.08375 6.07375 7.0425 7.0225 7 8 C8.65 8.33 10.3 8.66 12 9 C12 9.66 12 10.32 12 11 C9.23723823 10.47731534 6.6739124 9.89130413 4 9 C3.896875 8.071875 3.79375 7.14375 3.6875 6.1875 C2.9929808 2.96745642 2.52259061 1.97420135 0 0 Z " fill="#4CA7DC" transform="translate(65,35)"/>
<path d="M0 0 C-0.875 4.875 -0.875 4.875 -2 6 C-3.99958364 6.04080783 -6.00045254 6.04254356 -8 6 C-8 4.68 -8 3.36 -8 2 C-4.77208445 -0.1519437 -3.71599191 -0.20086443 0 0 Z " fill="#39B3F8" transform="translate(57,9)"/>
<path d="M0 0 C0.66 0 1.32 0 2 0 C2 1.98 2 3.96 2 6 C2.69867187 5.97679687 3.39734375 5.95359375 4.1171875 5.9296875 C5.02726562 5.91164063 5.93734375 5.89359375 6.875 5.875 C7.77992187 5.85179687 8.68484375 5.82859375 9.6171875 5.8046875 C12 6 12 6 14 8 C12.23086176 8.22226864 10.45955629 8.42733873 8.6875 8.625 C7.20830078 8.79902344 7.20830078 8.79902344 5.69921875 8.9765625 C3 9 3 9 0 7 C-0.1875 3.375 -0.1875 3.375 0 0 Z " fill="#4E94BA" transform="translate(24,30)"/>
<path d="M0 0 C-0.51949219 0.20753906 -1.03898437 0.41507813 -1.57421875 0.62890625 C-7.22494317 3.12525216 -9.76918562 5.74992664 -13 11 C-14 8 -14 8 -13.0625 5 C-10.62654191 1.45678823 -8.87823371 0.71347873 -4.9375 -0.65234375 C-3 -1 -3 -1 0 0 Z " fill="#5499B7" transform="translate(39,17)"/>
<path d="M0 0 C0.66 0 1.32 0 2 0 C2 1.98 2 3.96 2 6 C4.64 6.33 7.28 6.66 10 7 C10 7.33 10 7.66 10 8 C8.52093108 8.02689216 7.04172517 8.04634621 5.5625 8.0625 C4.32693359 8.07990234 4.32693359 8.07990234 3.06640625 8.09765625 C1 8 1 8 0 7 C-0.04092937 4.66702567 -0.04241723 2.33294775 0 0 Z " fill="#5795BA" transform="translate(38,38)"/>
<path d="M0 0 C1.2380014 3.57644848 0.74926071 6.33694766 0 10 C0.99 10 1.98 10 3 10 C3 10.66 3 11.32 3 12 C1.35 11.67 -0.3 11.34 -2 11 C-2.19622241 6.78121808 -1.80230168 3.82989106 0 0 Z " fill="#4791B1" transform="translate(46,21)"/>
<path d="M0 0 C1.65 0.33 3.3 0.66 5 1 C4.01 1.495 4.01 1.495 3 2 C3.33 3.32 3.66 4.64 4 6 C3.01 6.33 2.02 6.66 1 7 C0.67 6.34 0.34 5.68 0 5 C-0.99 5.495 -0.99 5.495 -2 6 C-1.49396008 3.83125748 -1.00016187 2.00032373 0 0 Z " fill="#0C1418" transform="translate(54,17)"/>
<path d="M0 0 C2.31 0 4.62 0 7 0 C7 0.99 7 1.98 7 3 C6.67 2.34 6.34 1.68 6 1 C4.35 1 2.7 1 1 1 C1 1.66 1 2.32 1 3 C0.01 3 -0.98 3 -2 3 C-2 3.66 -2 4.32 -2 5 C-2.99 5 -3.98 5 -5 5 C-4.67 4.01 -4.34 3.02 -4 2 C-2.68 2 -1.36 2 0 2 C0 1.34 0 0.68 0 0 Z " fill="#0A080B" transform="translate(363,99)"/>
<path d="M0 0 C0 1.65 0 3.3 0 5 C-2.64 5 -5.28 5 -8 5 C-3.32258065 0 -3.32258065 0 0 0 Z " fill="#41B2F0" transform="translate(44,16)"/>
<path d="M0 0 C0.99 0 1.98 0 3 0 C2.67 2.97 2.34 5.94 2 9 C1.34 8.67 0.68 8.34 0 8 C0 5.36 0 2.72 0 0 Z " fill="#47B0E9" transform="translate(59,37)"/>
<path d="M0 0 C0.66 0 1.32 0 2 0 C2.33 1.32 2.66 2.64 3 4 C4.65 4.33 6.3 4.66 8 5 C8 5.33 8 5.66 8 6 C5.36 6 2.72 6 0 6 C0 4.02 0 2.04 0 0 Z " fill="#4AACE3" transform="translate(40,38)"/>
<path d="M0 0 C0.66 0.33 1.32 0.66 2 1 C1.835 1.78375 1.67 2.5675 1.5 3.375 C0.9376293 5.88208039 0.9376293 5.88208039 1 8 C-0.32 8.33 -1.64 8.66 -3 9 C-2.01 6.03 -1.02 3.06 0 0 Z " fill="#09090B" transform="translate(68,10)"/>
<path d="M0 0 C0 0.33 0 0.66 0 1 C-2.31 1.66 -4.62 2.32 -7 3 C-7.33 4.98 -7.66 6.96 -8 9 C-8.33 9 -8.66 9 -9 9 C-9.36 2.64 -9.36 2.64 -7.875 0 C-5.06863762 -1.49672661 -2.99840718 -0.73294398 0 0 Z " fill="#0D0D10" transform="translate(73,8)"/>
<path d="M0 0 C0.99 0 1.98 0 3 0 C3 2.31 3 4.62 3 7 C1.68 6.01 0.36 5.02 -1 4 C-0.67 2.68 -0.34 1.36 0 0 Z " fill="#110F11" transform="translate(108,52)"/>
<path d="M0 0 C2.475 0.495 2.475 0.495 5 1 C4.67 1.99 4.34 2.98 4 4 C3.34 4 2.68 4 2 4 C1.67 4.66 1.34 5.32 1 6 C0 1.125 0 1.125 0 0 Z " fill="#0D0C0D" transform="translate(20,41)"/>
<path d="M0 0 C2.64 0 5.28 0 8 0 C8 0.99 8 1.98 8 3 C5.03 2.67 2.06 2.34 -1 2 C-0.67 1.34 -0.34 0.68 0 0 Z " fill="#44ADE3" transform="translate(30,34)"/>
<path d="" fill="#000000" transform="translate(0,0)"/>
<path d="" fill="#000000" transform="translate(0,0)"/>
<path d="" fill="#000000" transform="translate(0,0)"/>
<path d="" fill="#000000" transform="translate(0,0)"/>
</svg>
