<?xml version="1.0" encoding="UTF-8"?>
<svg version="1.1" xmlns="http://www.w3.org/2000/svg" width="500" height="500">
<path d="M0 0 C3.52918591 1.36020707 5.16128429 3.34669791 7.625 6.19921875 C8.92050781 7.68808594 8.92050781 7.68808594 10.2421875 9.20703125 C11.02851563 10.13257813 11.81484375 11.058125 12.625 12.01171875 C13.20507812 12.66914062 13.78515625 13.3265625 14.3828125 14.00390625 C17.625 17.72779018 17.625 17.72779018 17.625 20.01171875 C18.615 20.34171875 19.605 20.67171875 20.625 21.01171875 C20.769375 21.65109375 20.91375 22.29046875 21.0625 22.94921875 C21.42604993 25.21483581 21.42604993 25.21483581 23.6875 26.26171875 C24.326875 26.50921875 24.96625 26.75671875 25.625 27.01171875 C25.625 28.00171875 25.625 28.99171875 25.625 30.01171875 C26.2025 30.24375 26.78 30.47578125 27.375 30.71484375 C30.18641978 32.33531487 31.62752857 34.20435003 33.625 36.76171875 C37.20525117 41.260587 40.86449712 45.66250143 44.625 50.01171875 C48.94830687 55.02762387 53.18281298 60.10357745 57.35546875 65.24609375 C59.86600067 68.30539942 62.43023697 71.31474872 65 74.32421875 C69.31934826 79.39265678 73.46543351 84.57573859 77.55444336 89.83105469 C81.4100839 94.77436111 85.39626203 99.59504647 89.43359375 104.390625 C91.53444741 106.90341075 93.58342443 109.45068904 95.625 112.01171875 C97.03951871 113.74264296 98.45627403 115.47174127 99.875 117.19921875 C100.65230469 118.15054688 101.42960937 119.101875 102.23046875 120.08203125 C103.81244615 122.01756641 105.39831786 123.94992588 106.98828125 125.87890625 C107.71402344 126.76835937 108.43976563 127.6578125 109.1875 128.57421875 C109.84878906 129.37988281 110.51007813 130.18554688 111.19140625 131.015625 C112.625 133.01171875 112.625 133.01171875 112.625 135.01171875 C113.285 135.01171875 113.945 135.01171875 114.625 135.01171875 C115.53797981 136.34607386 116.44060639 137.68815922 117.3046875 139.0546875 C118.87356629 141.38015577 120.60488084 143.52301343 122.375 145.69921875 C131.61940991 157.14304218 139.7287719 169.02778584 146.625 182.01171875 C147.34631533 183.31844942 148.06906219 184.62439054 148.79296875 185.9296875 C153.98233091 195.37594831 158.16076334 204.80151827 161.625 215.01171875 C161.94162598 215.91849365 162.25825195 216.82526855 162.58447266 217.75952148 C168.73513305 235.66538893 171.10687607 253.23320138 171.125 272.07421875 C171.1293103 272.8416037 171.13362061 273.60898865 171.13806152 274.39962769 C171.16497025 285.56749822 169.88215486 296.08382133 167.625 307.01171875 C167.45210449 307.89239014 167.27920898 308.77306152 167.10107422 309.68041992 C160.91527763 340.35485767 145.71824421 367.36565524 125.625 391.01171875 C124.93148438 391.84832031 124.23796875 392.68492187 123.5234375 393.546875 C119.59980522 398.19611051 115.31013709 402.14076707 110.625 406.01171875 C110.03976562 406.49866211 109.45453125 406.98560547 108.8515625 407.48730469 C97.55151814 416.87237117 86.70509468 424.69834028 73.43798828 431.11621094 C71.69116653 431.97903644 69.96792506 432.88910641 68.24609375 433.80078125 C44.09519973 446.50588656 17.94909308 450.97874478 -9.125 450.69921875 C-10.26120789 450.69407257 -11.39741577 450.68892639 -12.5680542 450.68362427 C-29.85057519 450.5777596 -45.9013334 449.63383274 -62.375 444.01171875 C-63.61781738 443.60276367 -63.61781738 443.60276367 -64.88574219 443.18554688 C-70.18181307 441.40237242 -75.28263825 439.3066916 -80.375 437.01171875 C-81.5815625 436.47925537 -81.5815625 436.47925537 -82.8125 435.93603516 C-92.30627294 431.7220746 -101.08523668 427.33285553 -109.375 421.01171875 C-110.31085938 420.39425781 -111.24671875 419.77679688 -112.2109375 419.140625 C-115.66122429 416.81913574 -118.92641694 414.33853857 -122.1875 411.76171875 C-122.79988525 411.27791748 -123.41227051 410.79411621 -124.04321289 410.2956543 C-131.85127566 404.08640001 -139.03368307 397.73480124 -145.375 390.01171875 C-145.8174707 389.4815918 -146.25994141 388.95146484 -146.71582031 388.40527344 C-153.7041445 380.01467166 -160.00206861 371.55274238 -165.375 362.01171875 C-165.74222168 361.36477051 -166.10944336 360.71782227 -166.48779297 360.05126953 C-172.14708908 350.00690876 -176.62155042 339.90249708 -180.375 329.01171875 C-180.92607422 327.54412109 -180.92607422 327.54412109 -181.48828125 326.046875 C-186.52622284 312.17794701 -189.43258192 296.44335835 -189.6484375 281.7109375 C-189.66101089 280.92547043 -189.67358429 280.14000336 -189.6865387 279.33073425 C-190.05969801 250.36234991 -186.47694505 223.78727692 -174.32836914 197.14770508 C-173.44812425 195.17555078 -172.65270877 193.19002325 -171.875 191.17578125 C-167.93183226 181.87236987 -167.93183226 181.87236987 -163.67578125 179.51953125 C-160.54203404 178.72482934 -157.59396354 178.33751044 -154.375 178.01171875 C-152.52937082 177.67239486 -150.68438596 177.32955874 -148.83984375 176.984375 C-142.08310126 175.84649631 -135.46600355 175.66862603 -128.625 175.69921875 C-126.79207397 175.70223999 -126.79207397 175.70223999 -124.92211914 175.70532227 C-114.72180698 175.81821591 -105.09770068 176.77081852 -95.375 180.01171875 C-95.36082031 179.01398438 -95.34664063 178.01625 -95.33203125 176.98828125 C-94.72773826 155.26472316 -89.56000836 134.42725289 -82.375 114.01171875 C-82.13168945 113.29902832 -81.88837891 112.58633789 -81.63769531 111.85205078 C-74.8840933 92.11038622 -65.47367322 72.53031364 -53.23828125 55.59765625 C-51.81193074 53.61810901 -50.41829389 51.62788928 -49.04296875 49.61328125 C-48.64198975 49.02683838 -48.24101074 48.44039551 -47.82788086 47.83618164 C-46.68143609 46.15688553 -45.53600424 44.47689804 -44.390625 42.796875 C-42.8030762 40.60322714 -41.32978816 38.84836037 -39.375 37.01171875 C-38.36597556 35.87382434 -37.36678558 34.72716948 -36.375 33.57421875 C-18.13551774 12.62972853 -18.13551774 12.62972853 -7.390625 4.58984375 C-5.3460427 3.10620208 -5.3460427 3.10620208 -3.921875 1.24609375 C-2.375 0.01171875 -2.375 0.01171875 0 0 Z " fill="#DC2C00" transform="translate(259.375,24.98828125)"/>
<path d="M0 0 C0.33 0 0.66 0 1 0 C0.86132739 4.10444167 0.71283897 8.2084704 0.5625 12.3125 C0.52318359 13.47974609 0.48386719 14.64699219 0.44335938 15.84960938 C0.40146484 16.96787109 0.35957031 18.08613281 0.31640625 19.23828125 C0.27974854 20.26993408 0.24309082 21.30158691 0.20532227 22.36450195 C0 25 0 25 -1 28 C-1.068991 30.06145107 -1.08467727 32.12501401 -1.0625 34.1875 C-1.05347656 35.27417969 -1.04445313 36.36085937 -1.03515625 37.48046875 C-1.02355469 38.31191406 -1.01195312 39.14335937 -1 40 C0.0725 40.061875 1.145 40.12375 2.25 40.1875 C12.25955759 41.45855493 21.36206734 47.10817525 30 52 C30.87527344 52.46921875 31.75054687 52.9384375 32.65234375 53.421875 C33.46832031 53.86015625 34.28429687 54.2984375 35.125 54.75 C36.21167969 55.33007812 36.21167969 55.33007812 37.3203125 55.921875 C39 57 39 57 40 59 C42.01669827 60.13350534 42.01669827 60.13350534 44 61 C44 61.66 44 62.32 44 63 C44.74040527 63.25144775 45.48081055 63.50289551 46.24365234 63.76196289 C49.21221541 65.09531837 50.83822193 66.491937 53.1015625 68.80859375 C53.83890625 69.55560547 54.57625 70.30261719 55.3359375 71.07226562 C56.09132812 71.85279297 56.84671875 72.63332031 57.625 73.4375 C58.7696875 74.60249023 58.7696875 74.60249023 59.9375 75.79101562 C61.35453744 77.23415639 62.76846658 78.68036071 64.17822266 80.13061523 C65.31874206 81.30093915 66.47299803 82.4582015 67.64672852 83.59521484 C69.49411129 85.51292015 70.65722475 87.706526 72 90 C73.05407819 91.44368683 74.11700905 92.88094084 75.1875 94.3125 C81.2365479 102.89161677 86.42271513 112.80126939 89.359375 122.91015625 C89.976875 125.05344227 89.976875 125.05344227 90.953125 127.24609375 C100.62530943 150.37993786 99.9893756 181.30129719 93 205 C92.70319336 206.02335449 92.70319336 206.02335449 92.40039062 207.06738281 C89.50037157 216.84204252 86.20354014 226.81876451 80 235 C78.61598022 237.98395292 78.61598022 237.98395292 78 241 C80.0869635 244.13044524 80.81466639 244.45559583 84 246 C85.01639009 246.98333676 86.01492291 247.98529653 87 249 C93.54944587 255.03332106 100.87448933 261.2702574 109 265 C109 265.66 109 266.32 109 267 C109.71027344 267.26296875 110.42054688 267.5259375 111.15234375 267.796875 C114.14202537 269.06000523 116.78533455 270.57236536 119.5625 272.25 C127.78969 277.11152136 136.2741726 281.33308815 145.04296875 285.125 C146.79191717 285.90696496 148.49433908 286.79112069 150.1875 287.6875 C153.15627196 289.07292692 155.75965533 289.61424468 159 290 C143.99067261 305.00932739 107.75239057 307.70186266 87.85693359 307.74584961 C85.65459541 307.72974315 83.45227971 307.7102374 81.25 307.6875 C80.11379211 307.68235382 78.97758423 307.67720764 77.8069458 307.67190552 C60.52442481 307.56604085 44.4736666 306.62211399 28 301 C26.75718262 300.59104492 26.75718262 300.59104492 25.48925781 300.17382812 C20.19318693 298.39065367 15.09236175 296.29497285 10 294 C8.7934375 293.46753662 8.7934375 293.46753662 7.5625 292.92431641 C-1.93127294 288.71035585 -10.71023668 284.32113678 -19 278 C-19.93585938 277.38253906 -20.87171875 276.76507813 -21.8359375 276.12890625 C-25.28622429 273.80741699 -28.55141694 271.32681982 -31.8125 268.75 C-32.42488525 268.26619873 -33.03727051 267.78239746 -33.66821289 267.28393555 C-41.47627566 261.07468126 -48.65868307 254.72308249 -55 247 C-55.4424707 246.46987305 -55.88494141 245.93974609 -56.34082031 245.39355469 C-63.3291445 237.00295291 -69.62706861 228.54102363 -75 219 C-75.55083252 218.02957764 -75.55083252 218.02957764 -76.11279297 217.03955078 C-81.77208908 206.99519001 -86.24655042 196.89077833 -90 186 C-90.55107422 184.53240234 -90.55107422 184.53240234 -91.11328125 183.03515625 C-96.15122284 169.16622826 -99.05758192 153.4316396 -99.2734375 138.69921875 C-99.28601089 137.91375168 -99.29858429 137.12828461 -99.3115387 136.3190155 C-99.68469801 107.35063116 -96.10194505 80.77555817 -83.95336914 54.13598633 C-83.07312425 52.16383203 -82.27770877 50.1783045 -81.5 48.1640625 C-77.55683226 38.86065112 -77.55683226 38.86065112 -73.30078125 36.5078125 C-70.16703404 35.71311059 -67.21896354 35.32579169 -64 35 C-62.15437082 34.66067611 -60.30938596 34.31783999 -58.46484375 33.97265625 C-51.70810126 32.83477756 -45.09100355 32.65690728 -38.25 32.6875 C-36.41707397 32.69052124 -36.41707397 32.69052124 -34.54711914 32.69360352 C-24.34680698 32.80649716 -14.72270068 33.75909977 -5 37 C-4.97421875 35.92105469 -4.9484375 34.84210938 -4.921875 33.73046875 C-4.52358558 22.13175846 -2.68805001 11.27730747 0 0 Z " fill="#FDC300" transform="translate(169,168)"/>
<path d="M0 0 C0.33 0 0.66 0 1 0 C0.86132739 4.10444167 0.71283897 8.2084704 0.5625 12.3125 C0.52318359 13.47974609 0.48386719 14.64699219 0.44335938 15.84960938 C0.40146484 16.96787109 0.35957031 18.08613281 0.31640625 19.23828125 C0.27974854 20.26993408 0.24309082 21.30158691 0.20532227 22.36450195 C0 25 0 25 -1 28 C-1.068991 30.06145107 -1.08467727 32.12501401 -1.0625 34.1875 C-1.05347656 35.27417969 -1.04445312 36.36085937 -1.03515625 37.48046875 C-1.02355469 38.31191406 -1.01195312 39.14335937 -1 40 C0.0725 40.061875 1.145 40.12375 2.25 40.1875 C12.25955759 41.45855493 21.36206734 47.10817525 30 52 C30.87527344 52.46921875 31.75054687 52.9384375 32.65234375 53.421875 C33.46832031 53.86015625 34.28429687 54.2984375 35.125 54.75 C35.84945312 55.13671875 36.57390625 55.5234375 37.3203125 55.921875 C39 57 39 57 40 59 C42.01669827 60.13350534 42.01669827 60.13350534 44 61 C44 61.66 44 62.32 44 63 C44.74040527 63.25144775 45.48081055 63.50289551 46.24365234 63.76196289 C49.21221541 65.09531837 50.83822193 66.491937 53.1015625 68.80859375 C54.20757812 69.92911133 54.20757812 69.92911133 55.3359375 71.07226562 C56.09132812 71.85279297 56.84671875 72.63332031 57.625 73.4375 C58.7696875 74.60249023 58.7696875 74.60249023 59.9375 75.79101562 C61.35453744 77.23415639 62.76846658 78.68036071 64.17822266 80.13061523 C65.31874206 81.30093915 66.47299803 82.4582015 67.64672852 83.59521484 C69.49411129 85.51292015 70.65722475 87.706526 72 90 C73.05407819 91.44368683 74.11700905 92.88094084 75.1875 94.3125 C81.2365479 102.89161677 86.42271513 112.80126939 89.359375 122.91015625 C89.976875 125.05344227 89.976875 125.05344227 90.953125 127.24609375 C100.62530943 150.37993786 99.9893756 181.30129719 93 205 C92.80212891 205.68223633 92.60425781 206.36447266 92.40039062 207.06738281 C89.50037157 216.84204252 86.20354014 226.81876451 80 235 C78.61598022 237.98395292 78.61598022 237.98395292 78 241 C80.0869635 244.13044524 80.81466639 244.45559583 84 246 C85.01639009 246.98333676 86.01492291 247.98529653 87 249 C93.54944587 255.03332106 100.87448933 261.2702574 109 265 C109 265.66 109 266.32 109 267 C109.71027344 267.26296875 110.42054688 267.5259375 111.15234375 267.796875 C114.14202537 269.06000523 116.78533455 270.57236536 119.5625 272.25 C127.78969 277.11152136 136.2741726 281.33308815 145.04296875 285.125 C146.79191717 285.90696496 148.49433908 286.79112069 150.1875 287.6875 C153.15627196 289.07292692 155.75965533 289.61424468 159 290 C143.99079593 305.00920407 107.75130175 307.70268769 87.85595703 307.74536133 C85.65394607 307.72921683 83.45195643 307.70987834 81.25 307.6875 C80.11512146 307.68301849 78.98024292 307.67853699 77.81097412 307.67391968 C60.51427106 307.5796958 44.51303774 306.50868945 28 301 C27.19997559 300.74428223 26.39995117 300.48856445 25.57568359 300.22509766 C21.65277731 298.95885903 17.80612316 297.5899886 14 296 C14 295.34 14 294.68 14 294 C15.6396875 293.195625 15.6396875 293.195625 17.3125 292.375 C30.2702125 285.86186409 41.52121288 278.5544124 52.35473633 268.91162109 C56.79284991 265 56.79284991 265 59 265 C59.3403125 264.195625 59.3403125 264.195625 59.6875 263.375 C61.6945121 259.74326382 64.22835295 255.88582352 68 254 C68.309375 253.38125 68.61875 252.7625 68.9375 252.125 C70.0429176 249.91416481 71.26886195 248.73113805 73 247 C74.60509889 244.59235167 75.00857686 243.35165107 74.9375 240.4375 C73.69813346 237.215147 71.93579178 236.65608767 69 235 C69 234.01 69 233.02 69 232 C68.071875 231.6596875 68.071875 231.6596875 67.125 231.3125 C65 230 65 230 64 227.4375 C63.67 226.633125 63.34 225.82875 63 225 C62.37561035 224.8455542 61.7512207 224.6911084 61.10791016 224.53198242 C58.5534313 223.88729752 57.88212939 223.09608341 56.2734375 221.05078125 C55.7990625 220.44943359 55.3246875 219.84808594 54.8359375 219.22851562 C54.35382813 218.59623047 53.87171875 217.96394531 53.375 217.3125 C52.64023438 216.39307617 52.64023438 216.39307617 51.890625 215.45507812 C49.03912122 211.78162448 47.19369911 208.57116542 46 204 C45.34 204 44.68 204 44 204 C44 203.01 44 202.02 44 201 C43.01 200.67 42.02 200.34 41 200 C41 199.34 41 198.68 41 198 C40.34 198 39.68 198 39 198 C39 197.01 39 196.02 39 195 C38.01 194.67 37.02 194.34 36 194 C34.82421875 192.28515625 34.82421875 192.28515625 33.6875 190.0625 C31.95596857 186.77465163 30.15400893 183.59032682 28.1875 180.4375 C21.79668265 169.8244717 16.66347649 158.66022372 12.2265625 147.109375 C11.12546686 144.15392229 11.12546686 144.15392229 9.98193359 142.0637207 C8.98472585 139.96789846 8.50240697 138.14368455 8.0625 135.87109375 C6.82783155 129.97627532 5.01326244 124.29039298 3.2109375 118.54882812 C1.42665514 112.74991044 0.07785343 106.9696 -1 101 C-1.19722656 99.92492187 -1.39445313 98.84984375 -1.59765625 97.7421875 C-4.20446781 81.66319857 -4.23944857 65.44279043 -4.29516602 49.19262695 C-4.30669575 46.86118506 -4.32716302 44.52976976 -4.35668945 42.19848633 C-4.54073927 27.58451965 -3.79944824 14.15103907 0 0 Z " fill="#FE9001" transform="translate(169,168)"/>
<path d="M0 0 C1.41687119 4.25061356 0.19320039 6.71851625 -1 11 C-0.34 11 0.32 11 1 11 C0.67 11.66 0.34 12.32 0 13 C-0.66 13 -1.32 13 -2 13 C-7.47950179 24.51529817 -9.67305227 35.41741332 -11 48 C-11.66 48 -12.32 48 -13 48 C-12.90719477 55.36512911 -12.79982346 62.72994568 -12.68261719 70.09472656 C-12.64447934 72.59695699 -12.60960076 75.0992394 -12.578125 77.6015625 C-12.5321433 81.21112573 -12.47420429 84.82033571 -12.4140625 88.4296875 C-12.40251129 89.53738495 -12.39096008 90.6450824 -12.37905884 91.78634644 C-12.26898122 97.66063023 -11.78237463 103.12605813 -10.43515015 108.85159302 C-9.80639321 111.9558682 -9.86277482 114.84382083 -10 118 C-9.01 118.33 -8.02 118.66 -7 119 C-7 121.97 -7 124.94 -7 128 C-6.34 128 -5.68 128 -5 128 C-4.34 131.63 -3.68 135.26 -3 139 C-2.34 139 -1.68 139 -1 139 C1.24828052 143.49656104 1.16682272 147.07872966 1 152 C-1.70057015 149.29942985 -2.59889885 146.14622895 -3.875 142.625 C-4.14038574 141.89893555 -4.40577148 141.17287109 -4.67919922 140.42480469 C-5.21298036 138.95714933 -5.74377851 137.48840539 -6.27148438 136.01855469 C-6.87997394 134.3325655 -7.50793638 132.6536207 -8.140625 130.9765625 C-13.14646764 117.11117298 -16.05776731 101.41898683 -16.2734375 86.69921875 C-16.28601089 85.91375168 -16.29858429 85.12828461 -16.3115387 84.3190155 C-16.6964659 54.43708941 -12.61890304 27.39065875 0 0 Z " fill="#FBEA99" transform="translate(86,220)"/>
<path d="M0 0 C1.53445094 3.06890187 0.54984289 5.70094266 0 9 C-2.97 9.66 -5.94 10.32 -9 11 C-9.66 13.31 -10.32 15.62 -11 18 C-12.65 18.33 -14.3 18.66 -16 19 C-16 19.66 -16 20.32 -16 21 C-16.66 21 -17.32 21 -18 21 C-17.67 21.99 -17.34 22.98 -17 24 C-18.65 24.33 -20.3 24.66 -22 25 C-22 26.65 -22 28.3 -22 30 C-23.32 30.33 -24.64 30.66 -26 31 C-26 31.66 -26 32.32 -26 33 C-26.9590625 33.2784375 -26.9590625 33.2784375 -27.9375 33.5625 C-28.618125 34.036875 -29.29875 34.51125 -30 35 C-30.165 36.155 -30.33 37.31 -30.5 38.5 C-30.665 39.655 -30.83 40.81 -31 42 C-32.75 43.125 -32.75 43.125 -35 44 C-36.70884005 45.62339805 -38.37446717 47.29319053 -40 49 C-41.33333333 50.33333333 -42.66666667 51.66666667 -44 53 C-42.59290322 48.98904888 -40.67407059 45.95324484 -38.125 42.5625 C-34.80314689 38.10297277 -34.80314689 38.10297277 -31.6875 33.5 C-30.22669863 31.33584982 -28.84087277 29.81360059 -27 28 C-25.99097556 26.86210559 -24.99178558 25.71545073 -24 24.5625 C-4.62254902 2.31127451 -4.62254902 2.31127451 0 0 Z " fill="#D76041" transform="translate(247,34)"/>
<path d="M0 0 C1.83292603 0.00302124 1.83292603 0.00302124 3.70288086 0.00610352 C13.90319302 0.11899716 23.52729932 1.07159977 33.25 4.3125 C33.58 2.9925 33.91 1.6725 34.25 0.3125 C34.25 2.2925 34.25 4.2725 34.25 6.3125 C27.08859899 6.69614648 27.08859899 6.69614648 22.98828125 4.8203125 C16.97448211 2.45609833 10.51149854 2.90368632 4.15161133 2.97631836 C1.95291077 2.99983517 -0.24456532 2.99687429 -2.44335938 2.99023438 C-11.80390923 3.00926431 -20.6746333 3.77396443 -29.6875 6.4375 C-32.75 7.3125 -32.75 7.3125 -36.75 7.3125 C-37.018125 8.364375 -37.28625 9.41625 -37.5625 10.5 C-38.62252219 13.90322912 -39.66388304 16.44408918 -41.75 19.3125 C-42.41 19.3125 -43.07 19.3125 -43.75 19.3125 C-43.32045619 17.9141978 -42.88092966 16.51896093 -42.4375 15.125 C-42.07205078 13.95904297 -42.07205078 13.95904297 -41.69921875 12.76953125 C-40.61800081 9.97082309 -39.5598591 7.71749295 -37.75 5.3125 C-35.25390625 4.23828125 -35.25390625 4.23828125 -32.3125 3.625 C-31.36503906 3.41488281 -30.41757813 3.20476562 -29.44140625 2.98828125 C-28.22324219 2.76527344 -27.00507812 2.54226562 -25.75 2.3125 C-24.89100098 2.14258545 -24.03200195 1.9726709 -23.14697266 1.79760742 C-15.39339288 0.35721655 -7.87698771 -0.03522561 0 0 Z " fill="#FEF6B5" transform="translate(130.75,200.6875)"/>
<path d="M0 0 C1.41687119 4.25061356 0.19320039 6.71851625 -1 11 C-0.34 11 0.32 11 1 11 C0.67 11.66 0.34 12.32 0 13 C-0.66 13 -1.32 13 -2 13 C-7.47950179 24.51529817 -9.67305227 35.41741332 -11 48 C-11.66 48 -12.32 48 -13 48 C-13 63.51 -13 79.02 -13 95 C-13.33 95 -13.66 95 -14 95 C-15.58640859 84.38617113 -15.14641576 73.70385337 -15 63 C-14.99274902 62.1327832 -14.98549805 61.26556641 -14.97802734 60.37207031 C-14.72306705 38.89490637 -8.4552011 19.56203332 0 0 Z " fill="#EFC738" transform="translate(86,220)"/>
<path d="M0 0 C12.02291555 12.02291555 12.30841259 42.61483117 12.3894043 58.68481445 C12.38442899 63.50260769 12.35456305 68.31958261 12.2734375 73.13671875 C12.26268692 73.82741455 12.25193634 74.51811035 12.24085999 75.22973633 C12.13627443 79.57038618 11.68655227 83.72275851 11 88 C10.67 88 10.34 88 10 88 C10.00523682 86.94723877 10.01047363 85.89447754 10.01586914 84.80981445 C10.03419642 80.84188717 10.04553157 76.87396349 10.05493164 72.90600586 C10.05990931 71.20027026 10.06669386 69.4945388 10.07543945 67.78881836 C10.12530607 57.80082761 9.99518791 47.94851322 9 38 C8.34 38 7.68 38 7 38 C7 34.7 7 31.4 7 28 C6.34 28 5.68 28 5 28 C3.14438164 22.30060074 2.32050778 16.63755209 1.5625 10.6953125 C1.376875 9.80585938 1.19125 8.91640625 1 8 C0.34 7.67 -0.32 7.34 -1 7 C-0.67 4.69 -0.34 2.38 0 0 Z " fill="#ECAC98" transform="translate(418,234)"/>
<path d="M0 0 C6.15234375 -0.09765625 6.15234375 -0.09765625 8 0 C8.33 0.33 8.66 0.66 9 1 C23.91765824 3.05428448 38.78212412 3.25456167 53.8125 3.125 C55.8847612 3.11493023 57.95702725 3.10581158 60.02929688 3.09765625 C65.01965497 3.076005 70.00977089 3.04170555 75 3 C75 3.33 75 3.66 75 4 C71.59806541 4.76158671 68.42819636 5.13705058 64.94458008 5.17700195 C63.96197708 5.18983719 62.97937408 5.20267242 61.96699524 5.21589661 C60.91183212 5.22328354 59.85666901 5.23067047 58.76953125 5.23828125 C57.66510178 5.246353 56.5606723 5.25442474 55.42277527 5.26274109 C53.08012449 5.2765645 50.73745372 5.28729444 48.39477539 5.29516602 C46.02980531 5.30660968 43.66485946 5.32693824 41.30004883 5.35668945 C26.97538074 5.53669055 13.81366837 4.98521011 0 1 C0 0.67 0 0.34 0 0 Z " fill="#F5CC8B" transform="translate(206,470)"/>
<path d="M0 0 C1.7074998 1.28062485 3.37373596 2.61767557 5 4 C5 4.66 5 5.32 5 6 C5.99 6.33 6.98 6.66 8 7 C8.144375 7.639375 8.28875 8.27875 8.4375 8.9375 C8.80104993 11.20311706 8.80104993 11.20311706 11.0625 12.25 C11.701875 12.4975 12.34125 12.745 13 13 C13 13.99 13 14.98 13 16 C13.58265625 16.23460938 14.1653125 16.46921875 14.765625 16.7109375 C17.50531734 18.29152924 18.86983969 20.09401497 20.75 22.625 C21.36359375 23.44226563 21.9771875 24.25953125 22.609375 25.1015625 C23.06828125 25.72804688 23.5271875 26.35453125 24 27 C22.02 27.99 22.02 27.99 20 29 C18.515 25.535 18.515 25.535 17 22 C14.69 22 12.38 22 10 22 C10.495 17.545 10.495 17.545 11 13 C10.071875 13 9.14375 13 8.1875 13 C5 12 5 12 4.00390625 10.29296875 C3.25893165 8.21244382 2.62164439 6.12017788 2 4 C1.36039986 2.6534734 0.710001 1.31077107 0 0 Z " fill="#E38267" transform="translate(272,39)"/>
<path d="M0 0 C0.33 0 0.66 0 1 0 C0.86132739 4.10444167 0.71283897 8.2084704 0.5625 12.3125 C0.52318359 13.47974609 0.48386719 14.64699219 0.44335938 15.84960938 C0.40146484 16.96787109 0.35957031 18.08613281 0.31640625 19.23828125 C0.27974854 20.26993408 0.24309082 21.30158691 0.20532227 22.36450195 C0 25 0 25 -1 28 C-1.0685495 29.89470816 -1.08480372 31.7916834 -1.0625 33.6875 C-1.05347656 34.68136719 -1.04445312 35.67523438 -1.03515625 36.69921875 C-1.02355469 37.45847656 -1.01195312 38.21773437 -1 39 C-1.99 39 -2.98 39 -4 39 C-4.51656513 25.38276929 -3.34809213 13.21300645 0 0 Z " fill="#D55F43" transform="translate(169,168)"/>
<path d="M0 0 C0 4.02646222 -1.20506099 7.41012198 -3 11 C-3.99 11 -4.98 11 -6 11 C-6 11.66 -6 12.32 -6 13 C-6.639375 13.185625 -7.27875 13.37125 -7.9375 13.5625 C-8.618125 14.036875 -9.29875 14.51125 -10 15 C-10.165 16.155 -10.33 17.31 -10.5 18.5 C-10.665 19.655 -10.83 20.81 -11 22 C-12.75 23.125 -12.75 23.125 -15 24 C-16.70884005 25.62339805 -18.37446717 27.29319053 -20 29 C-21.33333333 30.33333333 -22.66666667 31.66666667 -24 33 C-22.59290322 28.98904888 -20.67407059 25.95324484 -18.125 22.5625 C-14.80314689 18.10297277 -14.80314689 18.10297277 -11.6875 13.5 C-10.22137298 11.32795996 -8.84487804 9.82270402 -7 8 C-5.76122932 6.61268295 -4.53235217 5.2164808 -3.3125 3.8125 C-2.68988281 3.09707031 -2.06726563 2.38164063 -1.42578125 1.64453125 C-0.95527344 1.10183594 -0.48476562 0.55914062 0 0 Z " fill="#E89982" transform="translate(227,54)"/>
<path d="M0 0 C2 2 2 2 2.1171875 3.78515625 C0.79819041 16.1879837 -2.31019407 28.45010561 -7 40 C-7.82491922 37.258015 -8.10074502 36.2878429 -7.125 33.5 C-6.0556508 30.17313581 -5.76743291 27.58705802 -5.5625 24.125 C-5.25314986 19.63942299 -4.53271192 16.12931594 -2.765625 12.0234375 C-1.30341338 8.15902107 -0.70700822 4.05905898 0 0 Z " fill="#E28A72" transform="translate(426,320)"/>
<path d="M0 0 C2.64 0 5.28 0 8 0 C0.34071926 7.65928074 -18.43164955 12.35295814 -29 13 C-28.34 12.67 -27.68 12.34 -27 12 C-27 11.01 -27 10.02 -27 9 C-25.94941406 8.80664062 -24.89882813 8.61328125 -23.81640625 8.4140625 C-20.20420795 7.74693705 -16.59580182 7.06095345 -12.98779297 6.37158203 C-11.32977991 6.0616464 -9.66727708 5.77585234 -8.00390625 5.49609375 C-5.39236623 5.06296471 -5.39236623 5.06296471 -2 4 C-0.74501637 2.00698048 -0.74501637 2.00698048 0 0 Z " fill="#FAD396" transform="translate(320,458)"/>
<path d="M0 0 C1.08740918 3.23342201 0.94175931 4.84182912 -0.4375 7.9375 C-1.7562887 11.15391226 -2.19476473 13.49423481 -2 17 C-2.4375 19.0625 -2.4375 19.0625 -3 21 C-3.12375 21.61875 -3.2475 22.2375 -3.375 22.875 C-4.22783035 25.7746232 -5.60315907 28.32778257 -7 31 C-7.99 31 -8.98 31 -10 31 C-8.44484574 20.45951002 -4.77579267 9.55158534 0 0 Z " fill="#E1836C" transform="translate(183,123)"/>
<path d="M0 0 C1 2 1 2 0.44140625 3.734375 C0.15136719 4.39953125 -0.13867188 5.0646875 -0.4375 5.75 C-1.86472078 9.30507721 -2.29003888 12.13281496 -2 16 C-3.65 16.66 -5.3 17.32 -7 18 C-7 18.66 -7 19.32 -7 20 C-7.66 20 -8.32 20 -9 20 C-9.28875 20.7425 -9.5775 21.485 -9.875 22.25 C-10.82302644 24.56739797 -11.84845911 26.77917115 -13 29 C-13.33 28.34 -13.66 27.68 -14 27 C-13.36669922 25.15576172 -13.36669922 25.15576172 -12.3046875 22.9296875 C-11.91796875 22.115 -11.53125 21.3003125 -11.1328125 20.4609375 C-10.71773437 19.60757813 -10.30265625 18.75421875 -9.875 17.875 C-9.483125 17.04484375 -9.09125 16.2146875 -8.6875 15.359375 C-6.12001292 10.00624835 -3.26138234 4.96027077 0 0 Z " fill="#E07A5F" transform="translate(198,94)"/>
<path d="M0 0 C1.32 0 2.64 0 4 0 C4.226875 0.721875 4.45375 1.44375 4.6875 2.1875 C6.26919718 5.57685109 8.20114502 7.5424688 11 10 C11.99 10.33 12.98 10.66 14 11 C15.17578125 12.55859375 15.17578125 12.55859375 16.3125 14.4375 C18.69841859 17.98728132 20.73575545 19.1074837 25 20 C25 21.65 25 23.3 25 25 C14.37085733 20.24927709 6.43286915 9.35690058 0 0 Z " fill="#F6DC69" transform="translate(109,408)"/>
<path d="M0 0 C0 0.33 0 0.66 0 1 C-0.71285156 1.12117187 -1.42570312 1.24234375 -2.16015625 1.3671875 C-8.60932598 2.48256732 -8.60932598 2.48256732 -14.9375 4.125 C-18 5 -18 5 -22 5 C-22.4021875 6.5778125 -22.4021875 6.5778125 -22.8125 8.1875 C-23.87252219 11.59072912 -24.91388304 14.13158918 -27 17 C-27.66 17 -28.32 17 -29 17 C-28.57045619 15.6016978 -28.13092966 14.20646093 -27.6875 12.8125 C-27.32205078 11.64654297 -27.32205078 11.64654297 -26.94921875 10.45703125 C-24.29448591 3.58531539 -24.29448591 3.58531539 -20.46875 1.85546875 C-13.53294182 0.29491191 -7.10672596 -0.37771969 0 0 Z " fill="#F9E695" transform="translate(116,203)"/>
<path d="M0 0 C3.68964132 1.23513634 5.6199342 3.59122817 8.0546875 6.48046875 C8.7362793 7.26067383 8.7362793 7.26067383 9.43164062 8.05664062 C10.54557993 9.33473941 11.64533638 10.6251753 12.7421875 11.91796875 C12.4121875 12.57796875 12.0821875 13.23796875 11.7421875 13.91796875 C10.56678754 12.99144174 9.40208173 12.05133488 8.2421875 11.10546875 C7.5925 10.58339844 6.9428125 10.06132813 6.2734375 9.5234375 C4.7421875 7.91796875 4.7421875 7.91796875 4.7421875 4.91796875 C2.97043931 5.00520253 1.19971373 5.1133853 -0.5703125 5.23046875 C-2.04951172 5.31748047 -2.04951172 5.31748047 -3.55859375 5.40625 C-6.50165707 5.96419688 -7.43964249 6.60337007 -9.2578125 8.91796875 C-9.9178125 8.58796875 -10.5778125 8.25796875 -11.2578125 7.91796875 C-9.76360265 6.68939621 -8.26920819 5.46104676 -6.7734375 4.234375 C-5.16489258 2.90825593 -5.16489258 2.90825593 -3.6953125 1.04296875 C-2.2578125 -0.08203125 -2.2578125 -0.08203125 0 0 Z " fill="#DE8A75" transform="translate(259.2578125,25.08203125)"/>
<path d="M0 0 C0 3 0 3 -1.35546875 4.6484375 C-1.96003906 5.21820313 -2.56460937 5.78796875 -3.1875 6.375 C-3.83074219 6.98988281 -4.47398437 7.60476563 -5.13671875 8.23828125 C-5.75160156 8.81964844 -6.36648438 9.40101563 -7 10 C-7.825 10.845625 -8.65 11.69125 -9.5 12.5625 C-12.54274135 15.52917282 -15.74506545 18.27035748 -19 21 C-19 19.35 -19 17.7 -19 16 C-17.68 16 -16.36 16 -15 16 C-15 14.02 -15 12.04 -15 10 C-14.01 10.66 -13.02 11.32 -12 12 C-11.34 12 -10.68 12 -10 12 C-10 9.69 -10 7.38 -10 5 C-8.68 5.33 -7.36 5.66 -6 6 C-6 5.34 -6 4.68 -6 4 C-4.36368108 2.95107762 -2.69514137 1.95093297 -1 1 C-0.67 0.67 -0.34 0.34 0 0 Z " fill="#ECA08B" transform="translate(387,411)"/>
<path d="M0 0 C1.41687119 4.25061356 0.19320039 6.71851625 -1 11 C-0.34 11 0.32 11 1 11 C0.67 11.66 0.34 12.32 0 13 C-0.66 13 -1.32 13 -2 13 C-4.60565056 18.47583416 -6.68709856 23.88640121 -8.2890625 29.73828125 C-8.9921438 31.97500693 -9.89497095 33.93633463 -11 36 C-10.59792316 23.33457964 -5.36001776 11.3384991 0 0 Z " fill="#FEF2B7" transform="translate(86,220)"/>
<path d="M0 0 C4.51039784 4.20006319 6.88424421 8.95413449 9.6875 14.375 C10.18572266 15.30828125 10.68394531 16.2415625 11.19726562 17.203125 C13.58642932 21.78046441 15.62294046 25.75624176 16 31 C11 24.63636364 11 24.63636364 11 20 C10.34 20 9.68 20 9 20 C8.67 18.02 8.34 16.04 8 14 C7.01 14 6.02 14 5 14 C4.67 11.69 4.34 9.38 4 7 C3.34 7 2.68 7 2 7 C0 4 0 4 0 0 Z " fill="#EDB0A0" transform="translate(400,199)"/>
<path d="M0 0 C0.33 0.66 0.66 1.32 1 2 C0.37915039 3.78759766 0.37915039 3.78759766 -0.65234375 5.9140625 C-1.01650391 6.67460937 -1.38066406 7.43515625 -1.75585938 8.21875 C-2.14580078 9.0128125 -2.53574219 9.806875 -2.9375 10.625 C-3.32357422 11.42679687 -3.70964844 12.22859375 -4.10742188 13.0546875 C-5.06461573 15.03997846 -6.02903475 17.02141737 -7 19 C-8.23878133 14.72897779 -8.01828805 11.03657611 -6 7 C-5.9175 6.360625 -5.835 5.72125 -5.75 5.0625 C-4.66723675 2.08490105 -2.73627061 1.40321569 0 0 Z " fill="#DC6D52" transform="translate(416,363)"/>
<path d="M0 0 C5.72351149 5.20319226 9.73229045 11.59843568 14 18 C13.67 18.99 13.34 19.98 13 21 C12.731875 20.360625 12.46375 19.72125 12.1875 19.0625 C11.11332248 16.66868314 11.11332248 16.66868314 8 16 C6.8125 12.9375 6.8125 12.9375 6 10 C5.01 10.99 4.02 11.98 3 13 C1.89066788 9.67200363 1.49543227 6.46802586 1 3 C0.67 2.01 0.34 1.02 0 0 Z " fill="#EAAA94" transform="translate(386,178)"/>
<path d="M0 0 C1.65 0 3.3 0 5 0 C0.3126338 5.17226615 -5.31728181 8.98925493 -11 13 C-11.66 12.67 -12.32 12.34 -13 12 C-12.01 11.67 -11.02 11.34 -10 11 C-10.33 9.68 -10.66 8.36 -11 7 C-9.68 7.33 -8.36 7.66 -7 8 C-7.66 6.35 -8.32 4.7 -9 3 C-8.2575 3.020625 -7.515 3.04125 -6.75 3.0625 C-4.29537721 3.00671312 -2.33890739 2.6930096 0 2 C0 1.34 0 0.68 0 0 Z " fill="#E27B5C" transform="translate(363,432)"/>
<path d="M0 0 C1.29552297 3.88656892 0.17624243 6.29784766 -1.125 10 C-1.35292236 10.66338379 -1.58084473 11.32676758 -1.81567383 12.01025391 C-7.51490104 28.25745052 -7.51490104 28.25745052 -11 30 C-11.33270828 25.76553104 -10.45773012 23.58482911 -8.25 20 C-5.19300339 14.69542433 -3.40167102 9.43637285 -1.76171875 3.5546875 C-1 1 -1 1 0 0 Z " fill="#FD810E" transform="translate(261,370)"/>
<path d="M0 0 C0.33 0 0.66 0 1 0 C1.3986014 7.97202797 1.3986014 7.97202797 -2 12 C-3.13156335 14.63012021 -4.05316948 17.29476994 -5 20 C-5.66 20 -6.32 20 -7 20 C-7.103125 20.61875 -7.20625 21.2375 -7.3125 21.875 C-8 24 -8 24 -11 26 C-10.5683394 23.58270063 -10.09372239 22.12186493 -8.58203125 20.15625 C-6.92866974 17.90277949 -5.99541772 15.85467638 -5 13.25 C-4.66484375 12.38117188 -4.3296875 11.51234375 -3.984375 10.6171875 C-3.65953125 9.75351562 -3.3346875 8.88984375 -3 8 C-2.69578125 7.19820313 -2.3915625 6.39640625 -2.078125 5.5703125 C-1.37866199 3.71607566 -0.68829984 1.85840956 0 0 Z " fill="#D63A00" transform="translate(259,380)"/>
<path d="M0 0 C3.6767529 3.5773812 7.04382682 7.29853732 10.3125 11.25 C10.76689453 11.79140625 11.22128906 12.3328125 11.68945312 12.890625 C15 16.87323778 15 16.87323778 15 18 C13.35 18 11.7 18 10 18 C10 16.35 10 14.7 10 13 C9.01 13 8.02 13 7 13 C6.67 11.35 6.34 9.7 6 8 C4.68 8 3.36 8 2 8 C1.34 5.36 0.68 2.72 0 0 Z " fill="#E99F8A" transform="translate(327,104)"/>
<path d="M0 0 C3.16115776 1.36983503 3.9927092 1.9890638 6 5 C6 5.99 6 6.98 6 8 C6.66 8 7.32 8 8 8 C9 12 10 16 11 20 C8.84261682 17.9861609 7.34234338 16.09796497 5.95703125 13.49609375 C5.43012695 12.50899414 5.43012695 12.50899414 4.89257812 11.50195312 C4.53615234 10.82068359 4.17972656 10.13941406 3.8125 9.4375 C3.44447266 8.75236328 3.07644531 8.06722656 2.69726562 7.36132812 C0 2.26204487 0 2.26204487 0 0 Z " fill="#F9E075" transform="translate(87,372)"/>
<path d="M0 0 C0.66 0 1.32 0 2 0 C2.66 3.63 3.32 7.26 4 11 C4.66 11 5.32 11 6 11 C8.24828052 15.49656104 8.16682272 19.07872966 8 24 C3.50776965 19.50776965 2.39905226 13.11275546 1.3125 7.0625 C1.18294922 6.37865234 1.05339844 5.69480469 0.91992188 4.99023438 C0.60610402 3.32816202 0.30200834 1.66425873 0 0 Z " fill="#F7D455" transform="translate(79,348)"/>
<path d="M0 0 C3.25516428 3.16474305 6.32008793 6.32752791 9 10 C9 10.66 9 11.32 9 12 C9.66 12 10.32 12 11 12 C11.33 13.32 11.66 14.64 12 16 C10.02 16 8.04 16 6 16 C6.66 15.67 7.32 15.34 8 15 C7.67 14.01 7.34 13.02 7 12 C6.34 11.67 5.68 11.34 5 11 C5 9.68 5 8.36 5 7 C3.68 6.67 2.36 6.34 1 6 C0.67 4.02 0.34 2.04 0 0 Z " fill="#EDB3A0" transform="translate(363,148)"/>
<path d="M0 0 C2.78560915 2.78560915 3.49171969 6.07342783 4.625 9.75 C4.85445313 10.45382813 5.08390625 11.15765625 5.3203125 11.8828125 C6.62037304 16.04610161 7.26368969 19.58666737 7 24 C4.68636664 19.55070508 2.40443737 15.06712433 1.4375 10.125 C1.293125 9.42375 1.14875 8.7225 1 8 C0.34 7.67 -0.32 7.34 -1 7 C-0.67 4.69 -0.34 2.38 0 0 Z " fill="#EDB7A5" transform="translate(418,234)"/>
<path d="M0 0 C1.60379341 -0.05416188 3.20811406 -0.09286638 4.8125 -0.125 C5.70582031 -0.14820313 6.59914062 -0.17140625 7.51953125 -0.1953125 C10 0 10 0 13 2 C13 2.66 13 3.32 13 4 C16.3 4.66 19.6 5.32 23 6 C23 6.33 23 6.66 23 7 C14.72550999 6.57200914 7.66700112 3.95555804 0 1 C0 0.67 0 0.34 0 0 Z " fill="#F9D390" transform="translate(183,463)"/>
<path d="M0 0 C1.6498275 0.42218816 3.29483665 0.86324425 4.9375 1.3125 C6.31228516 1.67794922 6.31228516 1.67794922 7.71484375 2.05078125 C8.46894531 2.36402344 9.22304687 2.67726563 10 3 C10.33 3.99 10.66 4.98 11 6 C14.50294871 7.71567661 14.50294871 7.71567661 18 9 C17.67 9.66 17.34 10.32 17 11 C10.99399742 8.16079878 5.32143097 5.00339136 0 1 C0 0.67 0 0.34 0 0 Z " fill="#FBE999" transform="translate(150,445)"/>
<path d="M0 0 C0.66 0 1.32 0 2 0 C2.67119549 1.4562545 3.33681807 2.91507867 4 4.375 C4.556875 5.59316406 4.556875 5.59316406 5.125 6.8359375 C6 9 6 9 6 11 C6.66 11 7.32 11 8 11 C8.33 12.32 8.66 13.64 9 15 C4.47951773 11.50746301 0.97381259 8.5513479 -1 3 C-0.67 2.01 -0.34 1.02 0 0 Z " fill="#D34929" transform="translate(409,219)"/>
<path d="M0 0 C0.33 0 0.66 0 1 0 C1.27733386 8.5511272 0.52016163 16.58481953 -1 25 C-1.33 25 -1.66 25 -2 25 C-2.22588024 16.40400201 -1.91958262 8.39817396 0 0 Z " fill="#FADDCE" transform="translate(167,176)"/>
<path d="M0 0 C-3.87098985 2.67282633 -7.66161189 5.12660513 -12 7 C-12.66 6.67 -13.32 6.34 -14 6 C-13.67 5.01 -13.34 4.02 -13 3 C-11.68 3 -10.36 3 -9 3 C-9 2.01 -9 1.02 -9 0 C-2.25 -1.125 -2.25 -1.125 0 0 Z " fill="#EBA58F" transform="translate(342,451)"/>
<path d="M0 0 C-1.65 0.33 -3.3 0.66 -5 1 C-5 1.66 -5 2.32 -5 3 C-8.63 3.66 -12.26 4.32 -16 5 C-15.34 4.67 -14.68 4.34 -14 4 C-14 3.01 -14 2.02 -14 1 C-12.41913952 0.63495397 -10.83516093 0.28339494 -9.25 -0.0625 C-8.36828125 -0.25972656 -7.4865625 -0.45695312 -6.578125 -0.66015625 C-4.01320972 -0.99825872 -2.42908361 -0.81158635 0 0 Z " fill="#F4BC64" transform="translate(307,466)"/>
<path d="M0 0 C1.32 0 2.64 0 4 0 C4.226875 0.721875 4.45375 1.44375 4.6875 2.1875 C6.26065775 5.55855233 8.34647131 7.40965057 11 10 C12.43692052 11.9497764 13.71054204 13.9464188 15 16 C8.28517738 13.76172579 3.88628158 5.65277321 0 0 Z " fill="#FAECA3" transform="translate(109,408)"/>
<path d="M0 0 C0.98484375 0.00902344 1.9696875 0.01804688 2.984375 0.02734375 C4.10585937 0.04474609 4.10585937 0.04474609 5.25 0.0625 C5.25 0.3925 5.25 0.7225 5.25 1.0625 C4.53714844 1.18367187 3.82429688 1.30484375 3.08984375 1.4296875 C-3.36829593 2.54610143 -3.36829593 2.54610143 -9.6875 4.25 C-12.63914691 5.03309 -13.9619662 5.17771352 -16.75 4.0625 C-13.285 3.5675 -13.285 3.5675 -9.75 3.0625 C-9.75 2.4025 -9.75 1.7425 -9.75 1.0625 C-6.43929162 0.06140485 -3.44915231 -0.04106134 0 0 Z " fill="#F5D76B" transform="translate(110.75,202.9375)"/>
<path d="M0 0 C4.61401459 3.25695147 8.00362438 7.24286757 11 12 C11 12.66 11 13.32 11 14 C9.68 13.67 8.36 13.34 7 13 C7 11.68 7 10.36 7 9 C6.01 9 5.02 9 4 9 C2.47551369 6.0173094 1.06059933 3.181798 0 0 Z " fill="#EAA590" transform="translate(375,164)"/>
<path d="M0 0 C1.31223496 3.93670488 0.24296256 6.12488144 -1 10 C-1.66 10 -2.32 10 -3 10 C-3.28875 10.7425 -3.5775 11.485 -3.875 12.25 C-4.82302644 14.56739797 -5.84845911 16.77917115 -7 19 C-7.33 18.34 -7.66 17.68 -8 17 C-7.37915039 15.21240234 -7.37915039 15.21240234 -6.34765625 13.0859375 C-5.98349609 12.32539062 -5.61933594 11.56484375 -5.24414062 10.78125 C-4.85419922 9.9871875 -4.46425781 9.193125 -4.0625 8.375 C-3.67642578 7.57320313 -3.29035156 6.77140625 -2.89257812 5.9453125 C-1.93538427 3.96002154 -0.97096525 1.97858263 0 0 Z " fill="#F0BBAE" transform="translate(192,104)"/>
<path d="M0 0 C0.53625 0.28875 1.0725 0.5775 1.625 0.875 C4.0538912 2.11374424 4.0538912 2.11374424 7.0625 2.8125 C10.65877933 4.26631505 11.26818941 5.61884599 13 9 C14.58245275 10.75149165 14.58245275 10.75149165 16 12 C11.66923089 10.55113209 8.68128855 8.351329 5.1875 5.4375 C4.21167969 4.63183594 3.23585937 3.82617188 2.23046875 2.99609375 C1.49441406 2.33738281 0.75835937 1.67867188 0 1 C0 0.67 0 0.34 0 0 Z " fill="#FBE891" transform="translate(134,433)"/>
<path d="M0 0 C2.3125 0 2.3125 0 5 1 C7.09524827 4.70697771 8.00247441 8.88982512 9 13 C5.41193683 9.61127367 2.54315201 6.23858668 0 2 C0 1.34 0 0.68 0 0 Z " fill="#FAE486" transform="translate(98,392)"/>
<path d="M0 0 C1.41687119 4.25061356 0.19320039 6.71851625 -1 11 C-0.34 11 0.32 11 1 11 C0.67 11.66 0.34 12.32 0 13 C-0.66 13 -1.32 13 -2 13 C-2.66 13.66 -3.32 14.32 -4 15 C-4.59720137 9.17728663 -2.528243 5.0790596 0 0 Z " fill="#F8DB67" transform="translate(86,220)"/>
<path d="M0 0 C7.22989332 2.65194858 14.46801382 5.46801382 20 11 C15.62832164 10.41926044 12.61708195 8.78839097 8.875 6.5 C4.60317592 3.89393108 4.60317592 3.89393108 0 2 C0 1.34 0 0.68 0 0 Z " fill="#FC7E0D" transform="translate(188,215)"/>
<path d="M0 0 C3 3 6 6 9 9 C8.67 9.66 8.34 10.32 8 11 C7.34 10.34 6.68 9.68 6 9 C4.35008418 8.29289322 2.68437744 7.62056011 1 7 C0.67 4.69 0.34 2.38 0 0 Z " fill="#E49581" transform="translate(296,67)"/>
<path d="M0 0 C3.28788824 3.11016455 5.83735988 6.01618925 8 10 C6.35 10.33 4.7 10.66 3 11 C3 9.35 3 7.7 3 6 C2.34 6 1.68 6 1 6 C0.67 4.02 0.34 2.04 0 0 Z " fill="#E58F7A" transform="translate(313,87)"/>
<path d="M0 0 C4.29 0 8.58 0 13 0 C12.01 0.495 12.01 0.495 11 1 C11 2.32 11 3.64 11 5 C9.53932801 4.54917531 8.08151968 4.08906463 6.625 3.625 C5.81289062 3.36976563 5.00078125 3.11453125 4.1640625 2.8515625 C2 2 2 2 0 0 Z " fill="#FBDE6F" transform="translate(172,458)"/>
<path d="M0 0 C0.33 0 0.66 0 1 0 C1 1.98 1 3.96 1 6 C-6.38461538 6.36923077 -6.38461538 6.36923077 -9.5 4.5 C-9.995 4.005 -10.49 3.51 -11 3 C-9.741875 2.979375 -8.48375 2.95875 -7.1875 2.9375 C-6.47980469 2.92589844 -5.77210938 2.91429687 -5.04296875 2.90234375 C-3 3 -3 3 0 4 C0 2.68 0 1.36 0 0 Z " fill="#F8D872" transform="translate(164,201)"/>
<path d="M0 0 C0 3 0 3 -1.75 5.0625 C-3.8059781 6.83292559 -5.56646964 7.8643525 -8 9 C-8.66 9.66 -9.32 10.32 -10 11 C-10 9.02 -10 7.04 -10 5 C-8.68 5.33 -7.36 5.66 -6 6 C-6 5.34 -6 4.68 -6 4 C-4.36368108 2.95107762 -2.69514137 1.95093297 -1 1 C-0.67 0.67 -0.34 0.34 0 0 Z " fill="#DC775C" transform="translate(387,411)"/>
<path d="M0 0 C0.66 0 1.32 0 2 0 C1.67 3.96 1.34 7.92 1 12 C0.01 12 -0.98 12 -2 12 C-1 3.42857143 -1 3.42857143 0 0 Z " fill="#F7DB6A" transform="translate(74,256)"/>
<path d="M0 0 C3.53233755 1.17744585 3.86308075 1.95605641 5.6875 5.0625 C6.12449219 5.79597656 6.56148438 6.52945313 7.01171875 7.28515625 C7.33785156 7.85105469 7.66398437 8.41695312 8 9 C5.03 8.505 5.03 8.505 2 8 C1.34 5.36 0.68 2.72 0 0 Z " fill="#E38B77" transform="translate(355,139)"/>
<path d="M0 0 C1.125 3.75 1.125 3.75 0 6 C-0.22467831 7.53668865 -0.40796805 9.07968054 -0.5625 10.625 C-0.64628906 11.44226563 -0.73007813 12.25953125 -0.81640625 13.1015625 C-0.87699219 13.72804687 -0.93757812 14.35453125 -1 15 C-1.99 15 -2.98 15 -4 15 C-2.07289294 4.44191344 -2.07289294 4.44191344 0 0 Z " fill="#F0B9A8" transform="translate(177,139)"/>
<path d="M0 0 C1.43931117 0.45261358 2.87638999 0.91232979 4.3125 1.375 C5.11300781 1.63023437 5.91351563 1.88546875 6.73828125 2.1484375 C9 3 9 3 12 5 C12 5.99 12 6.98 12 8 C10.68 7.67 9.36 7.34 8 7 C8 6.01 8 5.02 8 4 C6.865625 3.71125 5.73125 3.4225 4.5625 3.125 C3.386875 2.75375 2.21125 2.3825 1 2 C0.67 1.34 0.34 0.68 0 0 Z " fill="#F4D14E" transform="translate(160,450)"/>
<path d="M0 0 C4.88346282 4.1509434 4.88346282 4.1509434 5.4375 8.1875 C5 11 5 11 3 13 C1.89066788 9.67200363 1.49543227 6.46802586 1 3 C0.67 2.01 0.34 1.02 0 0 Z " fill="#E37E5F" transform="translate(386,178)"/>
<path d="M0 0 C1.65 0 3.3 0 5 0 C5.33 0.99 5.66 1.98 6 3 C6.66 3.33 7.32 3.66 8 4 C8 4.99 8 5.98 8 7 C7.01 6.67 6.02 6.34 5 6 C4.67 5.34 4.34 4.68 4 4 C1.98330173 2.86649466 1.98330173 2.86649466 0 2 C0 1.34 0 0.68 0 0 Z " fill="#D53600" transform="translate(248,410)"/>
<path d="M0 0 C3 3 6 6 9 9 C8.67 9.66 8.34 10.32 8 11 C1.29540481 5.9059081 1.29540481 5.9059081 0.0625 2.125 C0.041875 1.42375 0.02125 0.7225 0 0 Z " fill="#EDAE9D" transform="translate(263,28)"/>
<path d="M0 0 C3 1 3 1 5 2 C5 2.66 5 3.32 5 4 C7.97 4.495 7.97 4.495 11 5 C11 5.33 11 5.66 11 6 C8.03 5.67 5.06 5.34 2 5 C1.34 3.35 0.68 1.7 0 0 Z " fill="#D33706" transform="translate(317,452)"/>
<path d="M0 0 C0.33 0 0.66 0 1 0 C1.33 4.95 1.66 9.9 2 15 C1.01 15 0.02 15 -1 15 C-0.67 10.05 -0.34 5.1 0 0 Z " fill="#CD4F29" transform="translate(166,192)"/>
<path d="M0 0 C1.65 0 3.3 0 5 0 C0.375 4.875 0.375 4.875 -3 6 C-3.33 4.68 -3.66 3.36 -4 2 C-2.68 2 -1.36 2 0 2 C0 1.34 0 0.68 0 0 Z " fill="#DF866D" transform="translate(363,432)"/>
<path d="M0 0 C1.32 0 2.64 0 4 0 C2.77263971 4.15414253 1.672336 6.43688534 -1 10 C-0.67 6.7 -0.34 3.4 0 0 Z " fill="#E79C85" transform="translate(409,372)"/>
<path d="M0 0 C1.32 0.33 2.64 0.66 4 1 C4 1.66 4 2.32 4 3 C4.66 3 5.32 3 6 3 C6.33 4.32 6.66 5.64 7 7 C5.02 7 3.04 7 1 7 C1.66 6.67 2.32 6.34 3 6 C2.67 5.01 2.34 4.02 2 3 C1.34 2.67 0.68 2.34 0 2 C0 1.34 0 0.68 0 0 Z " fill="#DE7A61" transform="translate(368,157)"/>
<path d="M0 0 C8.19256018 -0.4726477 8.19256018 -0.4726477 11.5625 1.5 C12.036875 1.995 12.51125 2.49 13 3 C11.58249437 2.88490339 10.16598831 2.75746342 8.75 2.625 C7.96109375 2.55539062 7.1721875 2.48578125 6.359375 2.4140625 C3.914123 1.98492887 2.15163097 1.21399362 0 0 Z " fill="#F1992A" transform="translate(199,467)"/>
<path d="M0 0 C1.65 0.33 3.3 0.66 5 1 C3.35 2.65 1.7 4.3 0 6 C-0.99 5.67 -1.98 5.34 -3 5 C-2.67 4.34 -2.34 3.68 -2 3 C-1.34 3 -0.68 3 0 3 C0 2.01 0 1.02 0 0 Z " fill="#E9947E" transform="translate(345,444)"/>
<path d="M0 0 C2.96052484 3.36423277 3.92289822 6.69159287 5 11 C4.01 11.495 4.01 11.495 3 12 C2.49166409 10.75336669 1.99368855 9.50250613 1.5 8.25 C1.2215625 7.55390625 0.943125 6.8578125 0.65625 6.140625 C0 4 0 4 0 0 Z " fill="#FB7C0D" transform="translate(250,273)"/>
<path d="M0 0 C1.0625 1.8125 1.0625 1.8125 2 4 C1.67 4.99 1.34 5.98 1 7 C-0.32 7 -1.64 7 -3 7 C-1.125 1.125 -1.125 1.125 0 0 Z " fill="#E68F75" transform="translate(202,87)"/>
<path d="M0 0 C3.63094642 2.64960955 5.89851796 5.01824456 8 9 C6.68 9 5.36 9 4 9 C2.47551369 6.0173094 1.06059933 3.181798 0 0 Z " fill="#EDB097" transform="translate(305,78)"/>
<path d="M0 0 C1.14926266 0.95421808 2.29430541 1.91352045 3.4375 2.875 C4.07558594 3.40867188 4.71367187 3.94234375 5.37109375 4.4921875 C7 6 7 6 8 8 C7.01 8.33 6.02 8.66 5 9 C4.67 8.01 4.34 7.02 4 6 C3.01 5.67 2.02 5.34 1 5 C0.67 3.35 0.34 1.7 0 0 Z " fill="#FE860D" transform="translate(219,235)"/>
<path d="M0 0 C5.78461538 4.43076923 5.78461538 4.43076923 6.875 7.3125 C6.936875 8.1478125 6.936875 8.1478125 7 9 C6.34 8.67 5.68 8.34 5 8 C5 7.34 5 6.68 5 6 C3.68 5.67 2.36 5.34 1 5 C0.67 3.35 0.34 1.7 0 0 Z " fill="#EAA996" transform="translate(348,130)"/>
<path d="M0 0 C0.33 0.66 0.66 1.32 1 2 C0.67 2.99 0.34 3.98 0 5 C-4.875 3.25 -4.875 3.25 -6 1 C-4.02 0.67 -2.04 0.34 0 0 Z " fill="#FAC415" transform="translate(142,432)"/>
<path d="M0 0 C2.76223278 2.76223278 2.57856291 5.20706617 3 9 C1.68 8.34 0.36 7.68 -1 7 C-0.67 4.69 -0.34 2.38 0 0 Z " fill="#EEAD99" transform="translate(418,234)"/>
<path d="M0 0 C-6.75 3 -6.75 3 -9 3 C-9 2.01 -9 1.02 -9 0 C-2.25 -1.125 -2.25 -1.125 0 0 Z " fill="#DA6F58" transform="translate(342,451)"/>
<path d="M0 0 C0.66 0.99 1.32 1.98 2 3 C0.25 6.875 0.25 6.875 -2 8 C-1.125 2.25 -1.125 2.25 0 0 Z " fill="#D13513" transform="translate(198,96)"/>
<path d="M0 0 C0 4.31618166 -2.13270348 5.92789659 -5 9 C-5.66 9 -6.32 9 -7 9 C-5.44499019 5.18315774 -2.96404505 2.80804268 0 0 Z " fill="#FAD9CB" transform="translate(237,43)"/>
</svg>
